<svg t="1719893452631" class="icon" viewBox="0 0 2243 1024" version="1.1" xmlns="http://www.w3.org/2000/svg" p-id="17487" width="200" height="200"><path d="M2083.049902 913.558293c-10.015894 0-18.559803 0.799992-26.943713-0.159998-16.991819-1.951979-33.983639-1.567983-51.007458-2.079978-10.975883-0.287997-10.655887-0.287997-11.583877-10.911884-2.719971-32.415656-5.695939-64.767312-8.607909-97.150968-2.527973-28.447698-4.927948-56.895395-7.711918-85.311093-2.527973-26.047723-5.567941-52.031447-8.319912-78.015171-2.623972-24.44774-5.055946-48.92748-7.775917-73.311221a6547.706431 6547.706431 0 0 0-16.863821-153.694367l6.175935 61.567346c-3.295965-27.135712-6.55993-54.303423-10.207892-81.407136-18.495803-151.51839-24.671738-194.557933-30.943671-237.533476l13.439857 111.550815c-6.399932-44.735525-14.07985-89.215052-22.111765-133.66258-1.439985-7.967915-1.247987-8.255912 6.367932-9.535898 31.679663-5.407943 63.487325-10.015894 95.710983-9.311902 3.487963 0.095999 7.007926 0.159998 10.463889 0.607994 5.66394 0.703993 8.607909 3.455963 8.927905 10.047893 1.119988 22.975756 2.719971 45.951512 4.415953 68.863269 2.719971 37.599601 5.66394 75.167201 8.47991 112.734802 1.791981 24.191743 3.327965 48.319487 5.151946 72.41523 2.911969 38.783588 5.983936 77.503177 8.927905 116.286765 1.791981 23.711748 3.359964 47.487495 5.183945 71.167244 2.78397 34.81563 5.823938 69.567261 8.639908 104.350891 1.791981 22.143765 3.391964 44.319529 5.279944 66.431294 2.78397 32.799652 5.791938 65.567303 8.639908 98.366955 2.143977 25.599728 4.095956 51.263455 6.271933 77.663175zM856.91893 114.910779c4.639951 0 11.647876-0.511995 18.559803 0.127999 8.799907 0.799992 10.495888 3.071967 11.039882 11.903873 2.527973 40.383571 4.895948 80.767142 7.58392 121.182713 2.943969 43.583537 6.175934 87.071075 9.4079 130.590612 2.975968 39.967575 5.951937 79.903151 9.151903 119.870727 3.487963 43.903534 7.359922 87.711068 10.879884 131.614601 2.655972 33.631643 4.927948 67.231286 7.679918 100.894928 2.623972 31.231668 5.695939 62.367337 8.51191 93.567006 2.399975 26.847715 4.831949 53.695429 7.167924 80.575144 0.735992 8.51191 0.127999 9.055904-9.055904 8.831906-24.031745-0.575994-47.935491-3.391964-71.935236-2.719971-5.503942 0.159998-7.103925-2.367975-8.031914-7.58392-1.983979-11.359879-1.663982-22.911757-2.87997-34.399634-3.295965-30.367677-5.183945-60.831354-7.967915-91.26303-2.495973-27.647706-5.503942-55.199414-8.351911-82.81512-2.527973-25.247732-5.023947-50.495463-7.711918-75.743196-2.687971-24.799737-5.535941-49.631473-8.351912-74.431209-2.591972-22.847757-5.119946-45.695514-7.871916-68.511272-4.063957-33.471644-8.095914-66.911289-12.511867-100.318934-4.063957-30.655674-8.671908-61.18335-12.991862-91.807025a3181.598196 3181.598196 0 0 0-23.199753-146.558442l3.359964 22.143764a1045.044896 1045.044896 0 0 0-6.847927-37.023606l1.535983 8.991904c-0.95999-4.70395-0.095999-7.423921 5.279944-8.159913 14.14385-1.88798 28.2557-4.831949 42.463549-6.207934 14.207849-1.311986 28.415698-3.967958 45.119521-2.719971z m1006.06931 403.355714c27.071712 0 27.711706 0.191998 32.06366 24.54374 5.343943 30.047681 9.087903 60.319359 12.639865 90.623037 3.74396 32.287657 7.51992 64.543314 10.975884 96.862971 2.78397 26.015724 5.119946 52.095446 7.743918 78.07917 2.751971 27.26371 5.66394 54.399422 8.511909 81.631133 1.567983 15.391836 3.039968 30.783673 4.799949 46.143509 0.511995 4.447953-0.831991 6.815928-5.215944 7.327923-9.247902 1.055989-18.431804 2.271976-27.647707 3.263965-16.89582 1.823981-33.823641 3.615962-50.75146 5.183945-8.735907 0.799992-9.311901 0.319997-10.943884-8.127914-14.847842-76.607186-29.727684-153.182372-44.447528-229.821558-9.791896-50.975458-19.327795-101.950917-28.927693-152.926375a289.660922 289.660922 0 0 1-2.975968-16.479825l-0.607994-4.607951c-0.639993-4.031957 0.447995-6.62393 5.023947-7.711918 30.495676-7.135924 61.279349-12.639866 89.727047-14.015851z m-1137.075918 0c28.959692 0 28.831694 0.095999 33.311646 26.36772a1996.458788 1996.458788 0 0 1 16.191828 122.558698c4.287954 39.807577 8.959905 79.551155 13.15186 119.358732 2.84797 27.231711 5.087946 54.527421 7.743918 81.695132 1.88798 19.359794 4.127956 38.655589 6.175934 57.951384 0.255997 2.367975 0.383996 4.73595 0.543994 7.135924 0.415996 9.471899 0 10.239891-9.119903 11.167882-18.079808 1.88798-36.191615 3.455963-54.271423 5.247944-6.55993 0.639993-13.087861 1.599983-19.583792 2.239976-8.639908 0.799992-8.927905 0.767992-10.623887-7.967915-6.079935-30.687674-11.967873-61.407348-17.91981-92.095022-14.271848-73.887215-28.703695-147.74243-42.879544-221.629645-5.66394-29.567686-10.527888-59.231371-16.095829-88.831056-1.023989-5.407943-0.255997-7.935916 5.343943-9.247902 30.207679-7.039925 60.575356-12.543867 87.999065-13.951852z m382.13994 309.852708v124.030682c0 1.183987-0.127999 2.399975 0.031999 3.583962 0.607994 6.015936-1.599983 8.671908-7.807917 8.415911-8.159913-0.351996-16.255827-0.127999-24.41574 0.063999-17.023819 0.319997-34.079638-0.351996-51.071458 1.599983-9.4079 1.087988-9.215902 0.511995-10.143892-9.4079-2.78397-31.231668-5.823938-62.399337-8.671908-93.631005-2.623972-28.831694-4.991947-57.695387-7.679918-86.527081-2.719971-29.663685-5.759939-59.199371-8.51191-88.831056-1.88798-19.77579-3.551962-39.51958-5.215944-59.26337-2.175977-25.727727-4.191955-51.423454-6.463932-77.119181-0.95999-10.847885-0.159998-12.383868 10.591888-13.503856 17.471814-2.047978 37.695599-3.199966 58.207381-3.199966 8.895905 0 17.759811 0.223998 26.559718 0.639993l-1.247987-0.063999c6.943926 0.383996 13.855853 1.727982 20.575782 3.359964 8.47991 2.015979 9.4079 3.263965 9.855895 12.127871 0.92799 17.85581 1.85598 35.711621 2.335975 53.599431 0.543994 19.871789 0.095999 39.775577 0.831991 59.615366 1.85598 54.783418 1.567983 109.662835 2.207977 164.542252z m1134.803942 5.63194v117.438753c0 1.983979-0.063999 3.967958 0.032 5.983936 0.415996 5.151945-1.983979 6.975926-6.879927 6.943926-12.031872-0.095999-24.031745 0-36.031617 0.159999-13.567856 0.127999-27.103712 0.063999-40.639568 1.535983-8.927905 1.023989-8.991904 0.351996-9.791896-8.511909-3.679961-40.671568-7.55192-81.311136-11.263881-122.046704-3.391964-37.535601-6.527931-75.071202-9.983893-112.638803-3.551962-38.751588-7.423921-77.375178-10.911885-116.094766-1.727982-19.391794-3.167966-38.783588-4.607951-58.143383-0.575994-8.44791 0.351996-9.951894 9.887895-10.719886 16.575824-1.311986 33.087648-3.551962 49.791471-3.263965 16.639823 0.319997 33.311646-0.607994 49.855471 2.559973 14.015851 2.687971 14.719844 3.487963 15.551834 18.463804 2.399975 44.063532 1.663982 88.223063 3.231966 132.286594 1.599983 46.911502 0.479995 93.791003 1.759981 146.078448zM1834.732541 305.116758c9.791896 0.575994 17.503814 0.095999 25.183732 1.791981 4.895948 1.119988 7.359922 3.327965 7.839917 8.575909 2.303976 25.247732 4.799949 50.527463 7.327922 75.775195 2.015979 20.511782 4.159956 41.023564 6.239934 61.503346l0.191998 1.183988c1.663982 12.927863 1.279986 13.279859-11.29588 13.983851-11.199881 0.607994-22.367762 1.599983-33.567644 2.271976-7.359922 0.447995-9.695897 1.695982-10.911884-9.023904-4.191955-37.823598-9.055904-75.519198-13.695854-113.310796a1002.293351 1002.293351 0 0 0-5.119946-38.399592l0.831991 6.59193c-0.92799-5.983936 1.407985-9.279901 7.007926-9.759896 7.359922-0.671993 14.719844-0.863991 19.967788-1.215988z m-1133.363958 0.159998c7.55192 0.415996 15.327837-0.159998 22.943756 1.599983 4.351954 0.991989 6.55993 2.81597 6.975926 7.775918 0.92799 11.839874 2.751971 23.647749 3.871959 35.487623 3.551962 36.319614 6.911927 72.639228 10.239891 108.990842 0.703993 7.903916 0.543994 8.063914-6.847927 8.607908-13.119861 0.95999-26.271721 1.91998-39.423582 2.463974-7.647919 0.351996-8.607909-0.575994-9.567898-8.383911-3.327965-26.751716-6.463931-53.503432-9.663897-80.287147-2.591972-22.079765-4.767949-44.159531-7.903916-66.143297-0.863991-6.079935 1.119988-7.743918 5.983936-8.735907 7.711918-1.567983 15.455836-1.055989 23.391752-1.343986z m399.131759 100.030938c0 23.007756 0.063999 45.983511-0.032 68.991267 0 10.33589-0.127999 10.39989-10.399889 10.27189h-1.695982c-12.415868 0-24.703738-0.703993-36.76761-2.047978l1.471985 0.127999c-7.935916-0.991989-8.095914-0.735992-8.319912-9.151903-0.799992-28.127701-1.631983-56.255402-2.207976-84.351104-0.415996-19.039798-0.639993-38.015596-1.791981-57.023394-0.607994-9.823896-0.063999-9.919895 9.3759-10.047893 13.919852-0.159998 27.807705 0.479995 41.631558 2.591972 8.319912 1.279986 8.703908 1.279986 8.735907 10.495889 0.063999 23.391751 0.063999 46.783503 0.063999 70.175254h-0.063999z m1135.379936 0.607993c0 23.039755 0.063999 46.047511-0.031999 69.023267 0 9.663897-0.159998 9.727897-9.855895 9.663897a511.354567 511.354567 0 0 1-40.031575-1.91998l1.919979 0.127999c-6.303933-0.479995-8.159913-3.135967-7.743917-8.863906 0.063999-0.799992 0-1.599983 0-2.399974-0.95999-44.415528-1.91998-88.767057-2.81597-133.182585-0.032-2.367975-0.159998-4.73595-0.064-7.135924 0.127999-8.959905 0.159998-9.183902 9.151903-9.119903 12.383868 0.063999 24.671738 0.703993 37.023607 1.919979 15.07184 1.503984 12.415868 3.359964 12.479867 15.263838 0.063999 22.175764 0.032 44.415528 0 66.591292z m-1565.583365 53.983427c0.287997 12.639866 0.287997 12.607866-11.807875 15.551834-8.223913 2.015979-16.447825 4.223955-24.735737 6.047936-7.071925 1.599983-8.319912 0.703993-9.535899-6.239934-8.44791-47.1035-16.863821-94.206999-25.247731-141.342498-1.695982-9.759896-1.247987-10.36789 8.351911-12.063872 11.807875-2.079978 23.583749-4.127956 35.391624-5.951936 7.51992-1.183987 8.47991-0.767992 9.983894 7.51992 2.975968 16.735822 5.791938 33.535644 7.999915 50.399464 3.423964 26.687716 6.239934 53.471432 9.311901 80.159148 0.255997 1.951979 0.191998 3.967958 0.287997 5.919938zM1734.413607 323.196566c15.455836-2.527973 31.03967-5.087946 46.623504-7.55192 5.599941-0.863991 7.295922 2.655972 8.031915 7.647919 2.655972 18.431804 5.983936 36.73561 8.159913 55.199414 3.199966 26.751716 7.583919 53.375433 8.415911 80.319146 0.063999 2.751971 0.032 5.567941 0.095999 8.319912 0.159998 4.287954-1.983979 6.495931-5.951937 7.423921-10.559888 2.367975-21.119776 4.73595-31.647664 7.263923-5.055946 1.215987-6.751928-0.92799-7.583919-5.855938-3.167966-18.751801-6.815928-37.407603-10.047893-56.063404-5.471942-30.783673-10.783885-61.567346-16.095829-92.383019-0.127999-1.119988 0-2.303976 0-4.287954z m-710.61645 108.030852c-0.447995 16.383826 0.543994 30.655674-1.695982 44.927523-0.671993 4.511952-1.983979 7.423921-6.847927 7.839917-10.431889 0.863991-20.831779 1.695982-31.199669 2.75197-5.023947 0.543994-6.431932-1.631983-7.263923-6.55993-2.335975-14.559845-1.91998-29.311689-3.327964-43.935533-2.655972-27.615707-3.77596-55.423411-5.567941-83.103117-0.447995-6.751928-1.119988-13.439857-1.663983-20.191786-0.287997-3.77596 1.215987-5.887937 5.247945-6.047935 13.503857-0.543994 26.943714-3.007968 40.511569-2.527974 7.935916 0.287997 8.607909 0.799992 9.183903 8.799907 0.351996 5.535941 0.255997 11.135882 0.383996 16.703822l2.239976 81.343136z m1134.867942-15.871831c0 19.071797 0.223998 38.143595-0.032 57.183392-0.159998 9.919895-1.279986 10.783885-10.655887 11.647877-9.279901 0.863991-18.495803 1.567983-27.743705 2.559972-5.215945 0.543994-7.647919-0.991989-7.967915-6.975926-1.343986-25.343731-3.167966-50.687461-4.927948-75.967192-1.375985-20.991777-2.943969-41.951554-4.415953-62.879332-0.159998-2.399975-0.032-4.799949-0.191998-7.167924-0.223998-4.191955 1.055989-6.655929 5.759939-6.815928 13.119861-0.447995 26.143722-2.975968 39.359582-2.495973 8.063914 0.287997 8.191913 0.415996 8.799906 8.799906 1.951979 27.32771 2.143977 54.719419 2.015979 82.111128zM631.545325 756.151966c16.575824 18.239806 17.407815 39.839577 11.935873 62.399337s-18.047808 41.215562-33.247647 57.887385c-25.503729 27.903704-56.287402 48.511485-89.055054 65.983299-56.383401 30.14368-116.190765 50.175467-178.558103 61.983341-44.895523 8.47991-90.047043 15.007841-135.710558 17.503814-13.919852 0.767992-27.807705 1.407985-41.727556 1.311986-10.079893 0-20.191785 0.287997-30.239679-0.063999-8.543909-0.319997-9.791896-1.791981-10.495889-10.719886-2.591972-32.03166-4.799949-64.063319-7.647918-96.094979-3.327965-37.119606-7.231923-74.175212-10.815885-111.294818-2.623972-26.847715-4.895948-53.759429-7.775918-80.511144-3.327965-31.551665-7.071925-63.007331-10.719886-94.558996-3.327965-29.119691-6.527931-58.271381-10.047893-87.423071a8143.273478 8143.273478 0 0 0-12.319869-96.702972A4751.725513 4751.725513 0 0 0 46.175544 307.196736l5.727939 45.663515C39.96761 267.741155 31.4557 215.805707 22.271798 164.094256L27.583742 200.221873a2823.49 2823.49 0 0 0-27.583707-145.150458l3.903958 21.407772c-1.151988-5.503942 0.511995-7.711918 5.343943-9.727896C55.551444 47.551495 101.662955 27.999703 147.934463 8.735907c8.607909-3.583962 17.439815-6.59193 26.591717-8.287912 6.335933-1.183987 7.967915 0.127999 7.775918 6.495931-0.479995 16.287827 0.191998 32.639653-1.407985 48.863481a146.014449 146.014449 0 0 0-0.639994 13.023862v0.063999c-0.735992 58.36738-1.439985 116.798759 0.095999 175.198139 1.343986 51.199456 4.031957 102.334913 7.007926 153.502369 2.335975 40.383571 5.695939 80.735142 9.151903 121.054713 3.391964 39.51958 7.51992 78.943161 11.391879 118.462742 0.735992 7.51992 1.407985 8.223913 9.951894 7.071925 15.07184-2.399975 32.639653-3.903959 50.527463-4.191956h0.319997c52.895438-0.127999 104.894885 7.135924 156.350339 19.327795 45.023522 10.687886 88.799057 24.927735 130.78261 44.831523 20.799779 9.855895 40.703568 21.247774 58.815375 35.711621 6.175934 4.863948 11.679876 10.463889 16.895821 16.319827z m1126.836027-9.599898c20.479782 17.951809 27.935703 39.935576 22.111765 67.103287-4.831949 22.431762-15.775832 41.279561-30.367677 58.111382-23.423751 27.103712-51.839449 47.711493-82.623123 64.895311-60.319359 33.791641-124.606676 55.711408-192.157958 68.383273-30.175679 6.143935-68.255275 11.615877-106.910864 15.199839l-4.543952 0.351996c-21.183775 1.823981-42.463549 4.095956-66.207296 2.623972h-27.775705c-5.407943 0-8.47991-1.695982-8.927905-8.127913a4918.667739 4918.667739 0 0 0-6.943926-84.191106c-2.687971-29.631685-5.66394-59.231371-8.47991-88.863056-2.559973-27.231711-4.927948-54.495421-7.711918-81.727131-2.559973-25.663727-5.503942-51.263455-8.287912-76.863184-2.591972-24.063744-5.087946-48.127489-7.935916-72.127233-3.423964-29.119691-7.039925-58.207382-10.655887-87.327072-3.391964-27.167711-6.751928-54.303423-10.36789-81.407135a3954.965978 3954.965978 0 0 0-16.383826-121.022715l4.223956 33.88764c-5.695939-37.6636-11.807875-75.167201-17.823811-112.766802a3042.687671 3042.687671 0 0 0-32.95965-180.414083l3.839959 21.407773c-0.447995-2.335975-0.671993-4.73595-1.375985-7.007926-1.663982-5.119946-0.063999-7.839917 4.959947-9.823895 49.183477-19.231796 96.766972-42.431549 146.398445-60.703355 6.495931-2.431974 13.055861-5.151945 20.063787-5.855938 6.303933-0.639993 7.903916 0.383996 7.295922 7.103924-3.327965 36.447613-1.407985 73.055224-3.135967 109.534837-1.407985 29.759684-1.247987 59.583367 0.255998 89.37505 0.351996 7.55192 0.639993 15.135839 0.575994 22.655759-0.383996 35.77562 1.503984 71.48724 3.327964 107.198861 2.335975 47.199499 5.759939 94.270998 9.247902 141.406498 2.527973 34.015639 5.823938 67.935278 9.023904 101.918917 1.695982 18.591802 3.519963 37.151605 5.823938 55.615409 1.247987 10.207892 1.759981 10.303891 11.775875 8.959905 17.663812-2.399975 35.359624-4.351954 53.215435-4.095957 62.623335 0.799992 124.030682 10.687886 184.254042 27.871704 40.799567 11.583877 80.479145 26.047723 117.982746 46.303508 17.91981 9.631898 33.407645 20.383783 47.519495 32.703653l-0.287996-0.255997zM311.93272 922.806195c23.167754-11.071882 135.614559-98.942949 144.542465-113.278796-54.59142-23.51975-109.342838-45.375518-168.254213-63.231328l23.711748 176.510124z m1277.20243-107.518857c2.879969-3.103967 2.559973-5.503942-1.343986-7.231924-7.775917-3.551962-15.487835-7.327922-23.359751-10.559887-42.015554-17.183817-84.191105-33.823641-127.486646-47.391497-3.77596-1.151988-7.647919-3.77596-12.479867-1.535984l23.327752 173.438158c3.455963 0.767992 4.799949-0.831991 6.335933-1.91998 39.327582-28.863693 78.879162-57.37539 116.63876-88.383061 6.367932-5.183945 12.671865-10.39989 18.367805-16.447825z" p-id="17488" fill="#ffffff"></path></svg>