<svg t="1720171479936" class="icon" viewBox="0 0 1024 1024" version="1.1" xmlns="http://www.w3.org/2000/svg" p-id="26613" width="200" height="200"><path d="M182.41536 876.21632L123.16672 321.59744A49.27488 49.27488 0 0 1 122.88 316.35456C122.88 288.68608 145.7152 266.24 173.8752 266.24h532.8896c1.72032 0 3.44064 0.08192 5.14048 0.24576 28.01664 2.80576 48.4352 27.40224 45.58848 54.92736L727.2448 614.6048c-8.8064 77.33248-81.87904 136.17152-169.12384 136.17152h-156.22144a66.7648 66.7648 0 0 0-49.5616 21.99552l-99.16416 109.62944A57.22112 57.22112 0 0 1 210.7392 901.12a28.32384 28.32384 0 0 1-28.32384-24.90368zM563.2 409.6h-266.24a30.72 30.72 0 0 0 0 61.44h266.24a30.72 30.72 0 0 0 0-61.44z m-122.88 122.88h-143.36a30.72 30.72 0 0 0 0 61.44h143.36a30.72 30.72 0 0 0 0-61.44zM286.72 204.8a40.96 40.96 0 1 1 0-81.92h573.44a40.96 40.96 0 0 1 40.79616 44.66688l-40.96 450.56a40.96 40.96 0 1 1-81.59232-7.41376L815.3088 204.8H286.72z" p-id="26614"></path></svg>