<svg t="1719909495369" class="icon" viewBox="0 0 1024 1024" version="1.1" xmlns="http://www.w3.org/2000/svg" p-id="57769" width="200" height="200"><path d="M1024 512.113587a511.992569 511.992569 0 1 0-511.886412 511.886413 512.077494 512.077494 0 0 0 511.886412-511.886413z" fill="#FF720D" p-id="57770"></path><path d="M338.845026 724.468954l-1.401265-1.273877 25.689862-27.96161 1.231414 1.125259z m-1.48619-1.358802l-1.656041-1.549884 25.923406-27.749297 1.443728 1.337571z m-1.762197-1.63481l-1.656041-1.549884 26.135719-27.600677 1.443728 1.358802z m-1.740966-1.634809l-1.634809-1.571115 26.369262-27.324671 1.422497 1.358802z m-1.719734-1.656041l-1.63481-1.592346 26.560345-27.197283 1.422496 1.380033z m-1.783429-1.677271l-1.571115-1.63481 26.793888-26.900045 1.401265 1.380034z m-1.698503-1.677272l-1.592347-1.613579 27.027433-26.6665 1.401265 1.401265z m-1.698503-1.698504l-1.592347-1.613578 27.282208-26.369262 1.380034 1.422496z m-1.677272-1.719734l-1.571116-1.63481 27.452059-26.220643 1.380034 1.422496z m-1.656041-1.719735l-1.571115-1.65604 27.600677-26.008331 1.358803 1.443728z m-1.656041-1.740966l-1.48619-1.571115 27.876684-25.774787 1.337572 1.443728z m-1.634809-1.762197l-1.528653-1.677272 28.088997-25.477548 1.337572 1.464959z m-1.613578-1.762197l-1.528653-1.677272 28.30131-25.328929 1.31634 1.464959z m-1.613578-1.783428l-1.507422-1.698503 28.556086-25.074154 1.31634 1.48619z m-1.613578-1.762197l-1.486191-1.719735 28.704705-24.861841 1.295109 1.48619z m-1.571116-1.80466l-1.48619-1.719734 28.895786-24.628297 1.295109 1.507421z m-1.549884-1.825891l-1.464959-1.740966 29.171793-24.373521 1.273878 1.507421z m-1.549884-1.825891l-1.380034-1.783428 29.405337-24.118746 1.252646 1.528653z m-1.443728-1.783428l-1.443728-1.762197 29.490263-23.906433 1.252646 1.528652z m-1.528653-1.910816l-1.422496-1.762198 29.723806-23.672888 1.231415 1.549884z m-1.507421-1.868354l-1.464959-1.783428 29.893657-23.35442 1.231414 1.549884z m-1.464959-1.889585l-1.401266-1.783428 30.084739-23.184569 1.210184 1.549884z m-1.464959-1.889585l-1.380034-1.804659 30.27582-22.929794 1.188952 1.571115z m-1.443728-1.910816l-1.337571-1.80466 30.403207-22.696249 1.188953 1.571115z m-1.443728-1.910816l-1.358803-1.825891 30.636753-22.420243 1.167721 1.592347z m-1.422496-1.932047l-1.337572-1.847123 30.827834-22.186698 1.167721 1.592347z m-1.401266-1.932048l-1.31634-1.847122 30.997684-21.931923 1.14649 1.613578z m-1.31634-1.953279l-1.401265-1.910816 31.125072-21.613453 1.125258 1.613578z m-1.464959-1.910816l-1.295108-1.868353 31.358616-21.486066 1.125258 1.65604z m-1.358802-2.123129l-1.273878-1.889585 31.528467-21.23129 1.104027 1.634809z m-1.422497-1.889585l-1.252646-1.889584 31.698317-20.89159 1.082796 1.634809z m-1.31634-1.995741l-1.231415-1.910816 31.846936-20.636814 1.082796 1.65604z m-1.31634-2.016972l-1.231415-1.910817 32.038018-20.360807 1.061564 1.65604z m-1.295108-2.12313l-1.210184-1.932047 32.207868-20.106032 1.061564 1.677272z m-1.273878-2.123129l-1.167721-1.719734 32.377718-19.830025 1.040333 1.677272z m-1.252646-2.123129l-1.188952-1.932047 32.547568-19.57525 1.019102 1.698503z m-1.252646-2.123129l-1.167721-1.953278 32.696187-19.299243 1.019102 1.698503z m-1.231415-2.123129l-1.061564-1.528653 32.866037-19.108161 0.997871 1.698503z m-1.210183-2.123129l-1.125259-1.97451 33.014657-18.747229 0.976639 1.719734z m-1.188953-2.123129l-1.104027-1.97451 33.163276-18.471222 0.976639 1.719734z m-1.167721-2.123129l-1.104027-1.995741 33.39682-17.579509 0.955408 1.719735z m-1.146489-2.123129l-1.082796-1.995741 33.481745-17.919209 0.934177 1.740965z m-1.14649-2.123129l-1.061565-2.016973 33.609133-17.643202 0.934177 1.740966z m-1.125258-2.123129l-1.040334-2.123129 33.757752-17.367196 0.912946 1.762198z m-1.061565-1.528653l-1.040333-2.123129 33.970064-16.985032 0.891715 1.762197z m-1.082796-2.123129l-1.019102-2.123129 33.970065-16.793951 0.870483 1.762197z m-1.061564-2.123129l-0.997871-2.123129 34.182378-16.517944 0.870483 1.783428z m-1.040334-2.123129l-1.061564-2.123129 34.330997-16.241937 0.849251 1.783428z m-1.040333-2.123129l-0.955408-2.123129 34.479616-15.923468 0.82802 1.783428z m-1.019102-2.123129l-0.955408-2.123129 34.585772-15.668693 0.828021 1.80466z m-0.99787-2.123129l-0.934177-2.123129 34.776854-15.541305 0.806789 1.80466z m-0.97664-2.123129l-0.912945-2.123129 34.840547-15.074216 0.785558 1.804659z m-0.955408-2.123129l-0.891714-2.123129 34.967935-14.861904 0.785558 1.80466z m-0.934177-2.123129l-0.870483-2.123129 35.095324-14.500972 0.764326 1.825891z m-0.934176-2.123129l-0.849252-2.123129 35.222711-14.203734 0.743095 1.825891z m-0.912946-2.123129l-0.849252-2.123129 35.328868-13.906496 0.721864 1.825891z m-0.891714-2.229286l-0.891714-2.738836 35.435023-13.609258 0.721864 1.847123z m-0.891714-2.866224l-0.806789-2.123129 35.562411-13.312019 0.700633 1.847122z m-0.849252-2.250517l-0.785558-2.123129 35.668568-13.014781 0.679402 1.847122z m-0.785558-2.208054l-0.764326-2.123129 35.774724-12.738774 0.65817 1.847122z m-0.806789-2.250517l-0.743095-2.123129 35.880881-12.420305 0.65817 1.868354z m-0.785557-2.271748l-0.743096-2.123129 35.987038-12.123067 0.636938 1.868354z m-0.764327-2.271748l-0.721864-2.123129 36.093194-11.825829 0.615707 1.868354z m-0.764326-2.271748l-0.700633-2.123129 36.093194-11.50736 0.615707 1.868354z m-0.743096-2.292979l-0.679401-2.12313 36.284276-11.210121 0.594476 1.889585z m-0.721863-2.29298l-0.65817-2.123129 36.3692-10.912883 0.573245 1.889585z m-0.700633-2.292979l-0.636939-2.123129 36.454126-10.615645 0.552014 1.889584z m-0.679401-2.29298l-0.615708-2.123129 36.539051-10.297175 0.552014 1.889584z m-0.65817-2.31421l-0.615708-2.123129 36.623976-9.978707 0.530783 1.889585z m-0.636939-2.314211l-0.594476-2.123129 36.708901-9.681468 0.509551 1.910816z m-0.615707-2.314211l-0.573245-2.123129 36.793826-9.38423 0.48832 1.910816z m-0.594477-2.420367l-0.509551-2.123129 36.878752-9.065761 0.48832 1.910816z m-0.573244-2.335442l-0.530783-2.123129 36.942446-8.747291 0.467088 1.910816z m-0.552014-2.335442l-0.509551-2.123129 37.027371-8.492516 0.445857 1.910816z m-0.552013-2.335442l-0.48832-2.123129 37.091064-8.131584 0.424626 1.932048z m-0.530783-2.335441l-0.488319-2.123129 37.154758-7.834347 0.424626 1.932048z m-0.509551-2.335442l-0.467088-2.123129 37.218452-7.515877 0.403395 1.932047z m-0.488319-2.356674l-0.445857-2.229285 37.282146-7.091251 0.382163 1.932047z m-0.467089-2.356673l-0.424626-2.229285 37.34584-6.857707 0.360932 1.932047z m-0.445857-2.356673l-0.403394-2.229286 37.388302-6.5817 0.339701 1.932048z m-0.424626-2.356673l-0.382163-2.250517 37.451996-6.369387 0.339701 1.953278z m-0.403394-2.250517l-0.360932-2.250517 37.494459-5.944761 0.318469 1.953278z m-0.382163-2.356673l-0.339701-2.250517 37.558153-5.647523 0.297238 1.953278z m-0.360932-2.377905l-0.31847-2.250517 37.600616-5.329054 0.276006 1.953279z m-0.339701-2.377904l-0.318469-2.250517 37.68554-5.053047 0.276007 1.953278z m-0.318469-2.377905l-0.297238-2.250517 37.68554-4.692115 0.297238 1.910816z m-0.297238-2.377905q-0.233544-1.167721-0.233545-2.292979l37.706772-4.394877 0.233544 1.953279z m-0.233545-2.420367l-0.254775-2.250516 37.749234-4.076408q0 0.976639 0.212313 1.953279z m-0.276006-2.377904l-0.233545-2.250517 37.791697-3.757938q0 0.976639 0.212313 1.953278z m-0.31847-2.441599l-0.212313-2.271748 37.812929-3.439469q0 0.976639 0.191081 1.97451z m-0.233544-2.377904q0-1.125258-0.191082-2.271748l37.83416-3.142231q0 0.976639 0.16985 1.97451z m-0.212313-2.399136q0-1.125258-0.16985-2.271748l37.855391-2.823762q0 0.976639 0.148619 1.97451z m-0.191081-2.377904q0-1.125258-0.14862-2.271748l37.897854-2.46283q0 0.976639 0.148619 1.97451z m-0.169851-2.399136q0-1.125258-0.148619-2.271748l37.897854-2.123129q0 0.976639 0.127387 1.97451z m-0.148619-2.399136q0-1.125258-0.127388-2.271748l37.919085-1.889585v1.97451z m-0.127388-2.399136v-2.271748l37.770466-1.507422v1.97451z m-0.106156-2.399136v-2.271748l37.876622-1.188952v1.97451z m0-2.399136v-2.271748l37.876622-0.870483v1.974511z m0-2.399135v-2.271748l37.876622-0.552014v1.97451z m0-2.399136v-2.271748l37.770466-0.233544v1.97451z m0-2.399136v-2.271748h37.749234v1.97451z m0-2.399136v-2.271748l37.961547 0.297238v1.97451z m37.982779-2.123129l-38.195092-0.16985v-2.271748l38.088935 0.594476q-0.106156 0.997871-0.106156 1.97451z m0-2.123129l-38.152629-0.445857v-2.271748l38.046472 0.912945v1.97451z m0-2.123129l-38.110167-0.721864v-2.271748l38.00401 1.231415v1.97451z m0-2.123129l-38.046473-0.976639v-2.271748l37.940316 1.528652v1.974511z m0-2.123129l-37.961548-1.252646v-2.271748l37.919085 1.847122q0.063694 0.976639-0.063694 1.97451z m0-2.123129l-37.855391-1.528653q0-1.125258 0.127387-2.271748l37.897854 2.123129-0.084925 1.995741z m0.106156-2.123129l-37.897853-2.123129q0-1.125258 0.148619-2.271748l37.897853 2.462829-0.063694 2.29298z m0.127388-2.123129l-37.812929-2.059435q0-1.125258 0.14862-2.271748l37.876622 2.781299-0.127388 1.953278z m0.148619-2.123129l-37.791697-2.335442q0-1.125258 0.16985-2.271748l37.83416 3.078537-0.127388 1.97451z m0.16985-2.123129l-37.770466-2.590218q0-1.125258 0.191082-2.271748l37.812928 3.397007-0.16985 1.97451z m0.16985-2.123129l-37.749234-2.866225q0-1.125258 0.212313-2.271748l37.791697 3.715476-0.16985 1.97451z m0.191082-2.123129l-37.706772-3.099769 0.233544-2.250517 37.749235 4.012714-0.191082 1.932048z m0.212313-2.123129l-37.749234-4.033946 0.254775-2.250516 37.728003 4.246258q-0.042463 1.698503-0.148619 2.696374z m0.233544-2.123129l-37.558153-3.651782 0.276007-2.250517 37.685541 4.649652q-0.212313 0.976639-0.31847 1.953279z m0.254776-2.123129l-37.621847-3.906558 0.297238-2.250517 37.728003 4.946891q-0.212313 0.997871-0.3397 1.97451z m0.403394-1.31634l-37.706772-4.968122 0.297238-2.250517 37.600616 5.26536z m0.276007-2.12313l-37.664309-5.222897 0.318469-2.250517 37.558153 5.689986z m0.297238-2.123129l-37.621847-5.456441 0.339701-2.250517 37.51569 5.92353z m0.318469-2.123129l-37.579384-5.711217 0.360932-2.250517 37.473228 6.178306z m0.339701-2.123129l-37.536922-6.029686 0.382164-2.123129 37.409533 6.369387z m0.339701-2.123129l-37.473228-6.199537 0.403395-2.229285 37.345839 6.836476z m0.360932-2.123129l-37.409534-6.433081 0.424626-2.229285 37.282146 7.133713z m0.382163-2.123129l-37.34584-6.666625 0.445857-2.229285 37.239683 7.452182z m0.403394-2.123129l-37.282146-6.900169 0.445857-2.123129 37.17599 7.770652z m0.424626-2.123129l-37.154758-7.770652 0.467088-2.123129 37.091065 8.06789z m0.424626-2.123129l-37.154758-7.346026 0.488319-2.123129 37.027371 8.386359z m0.445857-2.123129l-37.02737-8.492516 0.50955-2.123129 36.963677 8.683598z m0.467088-2.123129l-36.963676-8.704829 0.530782-2.123129 36.878752 9.002067z m0.48832-2.123129l-36.942445-7.982965 0.552013-2.123129 36.815058 9.299305z m0.509551-2.123129l-36.85752-8.152816 0.573245-2.123129 36.730132 9.617775z m0.509551-2.016973l-36.772595-8.492516 0.594476-2.123129 36.560282 9.830088z m0.530782-2.016972l-36.68767-8.810986 0.594477-2.123129 36.560282 10.233482z m0.552014-1.995742l-36.602745-9.108223 0.615708-2.123129 36.475357 10.615645z m0.573245-1.995741l-36.475357-10.615645 0.636938-2.123129 36.390432 10.849189z m0.594476-1.995741l-36.432895-9.745162 0.65817-2.12313 36.305507 11.146428z m0.594476-1.995741l-36.432894-10.042401 0.679401-2.123129 36.19935 11.443666z m0.615707-1.995742l-36.093193-11.464897 0.700632-2.123129 36.093194 11.740904z m0.636939-1.97451l-36.093194-11.762135 0.721864-2.123129 35.902112 13.227094z m0.530782-0.849251l-36.093193-12.059373 0.721863-2.123129 36.093194 12.250454z m0.743096-1.932048l-35.880881-12.399073 0.743095-2.12313 35.795956 12.738775z m0.679401-1.97451l-35.795956-12.738774 0.764327-2.123129 35.689799 12.951087z m0.700632-1.995741l-35.668568-13.014781 0.785558-2.123129 35.583643 13.248325z m0.721864-1.953279l-35.562411-13.184631 0.870483-2.123129 35.477486 13.545563z m0.743095-1.953279l-35.435023-13.545563 0.82802-2.123129 35.265173 13.842801z m0.65817-1.932047l-35.243942-13.842801 0.828021-2.123129 35.243942 14.140039z m0.764327-1.932047l-35.137786-14.14004 0.849252-2.123129 35.116554 14.437278z m0.785558-1.932048l-35.010398-14.437277 0.870483-2.123129 34.989166 14.713284z m0.806789-1.910816l-34.904242-14.734516 0.891714-2.123129 34.883011 15.010523z m0.806789-1.910816l-34.755623-15.031754 0.912946-2.123129 34.755622 15.307761z m0.82802-1.910816l-34.628235-15.328992 0.934177-2.123129 34.607004 15.62623z m0.849252-1.910816l-34.564541-15.604999 0.934177-2.123129 34.479615 15.881005z m0.870483-1.889585l-34.37346-15.902237 0.955408-2.123129 34.352228 16.178243z m0.870483-1.889585l-34.182378-16.178243 0.976639-2.12313 34.22484 16.454251z m0.891714-1.889585l-34.097453-16.45425 0.997871-2.123129 34.118684 16.815182z m1.019102-1.868354l-33.970065-16.751488 1.019102-2.123129 33.970065 16.985033z m0.934176-1.868353l-33.970064-16.985032 1.019102-2.12313 33.800214 17.303502z m0.934177-1.847122l-33.715289-17.324733 1.040333-2.123129 33.651596 17.579508z m0.955408-1.847123l-33.630364-17.600739 1.082796-1.995742 33.481745 17.919209z m0.97664-1.847122l-33.524208-17.876746 1.082796-1.995742 33.354357 18.131522z m0.99787-1.825891l-33.354357-18.152753 1.104027-1.995742 33.205738 18.407529z m0.997871-1.825891l-33.205738-18.42876 1.104027-1.97451 33.057119 18.683536z m1.019102-1.825891l-33.057119-18.683535 1.125258-1.97451 32.887269 18.959542z m1.040333-1.80466l-32.9085-18.980773 1.14649-1.953279 32.738649 19.235549z m1.040333-1.804659l-32.73865-19.235549 1.167721-1.953279 32.5688 19.511556z m1.061565-1.783429l-32.5688-19.511556 1.167721-1.953278 32.420181 19.766331z m1.082796-1.698503l-32.420181-19.872488 1.188952-1.932047 32.250331 20.042338z m1.082795-1.783428l-32.229098-20.127264 1.210183-1.932047 32.08048 20.297114z m1.104028-1.762197l-32.059249-20.382039 1.231415-1.910816 31.846936 20.57312z m1.125258-1.762197l-31.846936-20.573121 1.231415-1.910816 31.846936 20.827896z m1.14649-1.740966l-31.74078-20.912821 1.252647-1.889585 31.570928 21.082671z m1.146489-1.740966l-31.507235-21.167597 1.273878-1.889585 31.337384 21.358679z m1.167721-1.825891l-31.401078-21.231291 1.295108-1.868353 31.209997 21.613454z m1.188953-1.719735l-31.231229-21.634685 1.295109-1.868353 31.040147 21.868229z m1.188952-1.698503l-31.040147-21.846998 1.31634-1.847122 30.76414 22.101773z m1.210183-1.698503l-30.870296-22.101773 1.337571-1.847123 30.679215 22.37778z m1.231415-1.698503l-30.679214-22.356549 1.337571-1.825891 30.488133 22.632555z m1.210184-1.677272l-30.488133-22.611325 1.358802-1.825891 30.318283 22.887332z m1.252646-1.677272l-30.297052-22.844869 1.380034-1.804659 30.10597 23.120875z m1.252646-1.656041l-30.084738-23.099644 1.380033-1.80466 29.93612 23.35442z m1.273878-1.656041l-29.914889-23.354419 1.422497-1.762197 29.723806 23.609195z m1.295108-1.634809l-29.723806-23.566732 1.422496-1.783429 29.553956 23.863971z m1.295109-1.634809l-29.511494-23.800277 1.422497-1.762197 29.362874 24.097515z m1.31634-1.613578l-29.405337-24.097515 1.549884-1.698503 29.12933 24.331059z m1.337571-1.613578l-29.12933-24.288597 1.464959-1.740965 28.95948 24.585834z m1.337572-1.592347l-28.917018-24.522141 1.48619-1.719734 28.725936 24.798147z m1.358802-1.592347l-28.725936-24.755685 1.48619-1.719734 28.556086 25.052923z m1.358803-1.571115l-28.428698-24.989229 1.507421-1.698504 28.216385 25.286467z m1.380034-1.571116l-28.301311-25.201542 1.528653-1.698503 28.13146 25.604936z m1.401265-1.549884l-28.088997-25.435086 1.528652-1.677272 27.919147 25.732324z m1.401265-1.528653l-27.876684-25.66863 1.634809-1.677272 27.600678 25.965868z m1.358803-1.464959l-27.600678-25.965868 1.549884-1.656041 27.600678 26.178181z m1.422496-1.507422l-27.388365-26.199412 1.571116-1.634809 27.282208 26.411725z m1.443728-1.507421l-27.176052-26.411726 1.592347-1.634809 26.963739 26.645269z m1.464959-1.486191l-26.963739-26.645269 1.592347-1.698503 26.857582 26.942507z m1.464959-1.48619l-26.730195-26.857582 1.613578-1.592347 26.624038 27.069895z m1.571115-1.380034l-26.602807-27.15482 1.613578-1.592347 26.411726 27.282208z m1.486191-1.464959l-26.390494-27.367133 1.634809-1.571116 26.199412 27.494521z m1.528653-1.528653l-26.178182-27.494521 1.656041-1.549884 25.944637 27.791759z m1.507421-1.422496l-25.944637-27.706834 1.656041-1.549885 25.732324 27.919147z m1.528653-1.422497l-25.732324-27.919147 1.698503-1.528653 25.477549 28.110229zM685.148605 724.468954l1.401265-1.273877-25.689862-27.96161-1.231414 1.125259z m1.48619-1.358802l1.656041-1.549884-25.902175-27.749297-1.443727 1.337571z m1.762197-1.63481l1.656041-1.549884-26.135719-27.600677-1.443727 1.358802z m1.740966-1.634809l1.656041-1.571115-26.369263-27.324671-1.422497 1.358802z m1.719735-1.656041l1.634809-1.592346-26.581576-27.197283-1.422496 1.380033z m1.634809-1.677271l1.719734-1.63481-26.815119-26.857582-1.401266 1.380034z m1.698503-1.677272l1.592347-1.613579-26.900045-26.6665-1.401265 1.401265z m1.698503-1.698504l1.592347-1.613578-27.15482-26.369262-1.380034 1.422496z m1.677272-1.719734l1.571116-1.63481-27.367134-26.220643-1.380033 1.422496z m1.656041-1.719735l1.571115-1.65604-27.600677-26.008331-1.358803 1.443728z m1.656041-1.740966l1.549884-1.65604-27.791759-25.774787-1.252647 1.443728z m1.634809-1.762197l1.528653-1.677272-28.088997-25.477548-1.337572 1.464959z m1.613578-1.762197l1.528653-1.677272-28.216385-25.307698-1.31634 1.464959z m1.613578-1.783428l1.507422-1.698503-28.428698-25.074154-1.31634 1.48619z m1.613578-1.783429l1.486191-1.719734-28.641011-24.84061-1.295109 1.48619z m1.571116-1.804659l1.48619-1.719735-28.853324-24.607065-1.295108 1.507421z m1.549884-1.825891l1.464959-1.740966-29.044405-24.35229-1.273878 1.507421z m1.549884-1.825891l1.443728-1.740966-29.235487-24.139977-1.252646 1.528653z m1.528653-1.847122l1.443728-1.762198-29.4478-23.885201-1.252646 1.528653z m1.507422-1.847123l1.422496-1.762197-29.723807-23.672889-1.231414 1.549885z m1.507421-1.868353l1.401265-1.783429-29.723806-23.396882-1.231415 1.549884z m1.486191-1.889585l1.401265-1.783429-30.021045-23.163337-1.188952 1.549884z m1.464959-1.889585l1.380033-1.80466-30.212126-22.908562-1.188952 1.571115z m1.443727-1.910816l1.358803-1.825891-30.381977-22.653787-1.188952 1.571115z m1.443728-1.910816l1.358803-1.825891-30.573059-22.399012-1.188952 1.656041z m1.422497-1.932048l1.337571-1.847122-30.76414-22.144236-1.167721 1.592347z m1.401265-1.932047l1.31634-1.847122-30.93399-21.910692-1.14649 1.613578z m1.401265-1.953279l1.295109-1.868353-31.188766-21.634685-1.125258 1.613578z m1.380034-1.953279l1.295109-1.868353-31.316154-21.422372-1.125258 1.634809z m1.422496-2.059435l1.273878-1.889585-31.528467-21.23129-1.125258 1.889585z m1.337572-1.97451l1.252646-1.889585-31.698317-20.891589-1.082796 1.634809z m1.31634-1.995741l1.231414-1.910816-31.846935-20.636815-1.082796 1.656041z m1.31634-2.016973l1.231414-1.910816-32.038017-20.360807-1.061564 1.65604z m1.295108-2.123129l1.210184-1.932047-32.207868-19.893719-1.061564 1.677272z m1.273878-2.123129l1.188952-1.932047-32.377718-19.830025-1.040333 1.677271z m1.252646-2.123129l1.188952-1.932047-32.547568-19.193087-1.019102 1.698503z m1.252646-2.123129l1.167721-1.953279-32.696187-19.299243-1.019102 1.698504z m1.231415-2.123129l1.14649-1.953279-32.866038-19.108161-0.997871 1.698503z m1.210183-2.123129l1.125259-1.97451-33.014657-18.747229-0.976639 1.719734z m1.188953-2.123129l1.104027-1.97451-33.163276-18.471223-0.976639 1.719735z m1.167721-2.123129l1.104027-1.995741-33.333126-17.494584-0.955408 1.719735z m1.146489-2.123129l1.082796-1.995741-33.481745-17.919209-0.934177 1.740965z m1.14649-2.123129l1.061565-2.016973-33.609133-17.643202-0.934177 1.740966z m1.125258-2.123129l1.040334-2.123129-33.757752-17.367196-0.912946 1.762197z m1.104027-2.123129l1.040334-2.123129-33.970065-16.985033-0.891714 1.762198z m1.082796-2.123129l1.019102-2.123129-33.970064-16.793951-0.870483 1.762197z m1.061565-2.123129l0.99787-2.123129-34.182377-16.517944-0.870483 1.783428z m1.040333-2.123129l0.976639-2.123129-34.330996-16.241938-0.849252 1.783429z m1.040333-2.123129l0.955408-2.123129-34.437153-15.244067-0.82802 1.783428z m1.019102-2.123129l0.955408-2.123129-34.585772-15.668693-0.82802 1.80466z m0.997871-2.123129l0.934177-2.123129-34.71316-15.371455-0.806789 2.250517z m0.976639-2.123129l0.912946-2.12313-34.840548-15.074216-0.785558 1.80466z m0.955408-2.12313l0.891715-2.123129-34.967936-14.861903-0.785558 1.80466z m0.934177-2.123129l0.870483-2.123129-35.095323-14.500971-0.764327 1.825891z m0.934177-2.123129l0.849251-2.123129-35.22271-14.203733-0.743096 1.825891z m0.912945-2.123129l0.849252-2.123129-35.265173-13.842801-0.721864 1.825891z m0.891715-2.123129l0.82802-2.123129-35.435024-13.609257-0.721864 1.847122z m0.785557-2.292979l0.806789-2.123129-35.562411-13.312019-0.700633 1.847122z m0.849252-2.250517l0.785558-2.123129-35.604874-13.014781-0.679402 1.847122z m0.82802-2.250517l0.764327-2.123129-35.774725-12.738774-0.65817 1.847122z m0.806789-2.250516l0.743095-2.123129-35.88088-12.420305-0.65817 1.868353z m0.785558-2.271749l0.743095-2.123129-35.859649-12.123066-0.636939 1.868353z m0.764326-2.271748l0.721864-2.123129-36.093193-11.825828-0.615708 1.868353z m0.764327-2.271748l0.700633-2.123129-36.093194-11.507359-0.615708 1.868353z m0.743095-2.292979l0.679401-2.123129-36.284275-11.210121-0.594476 1.889584z m0.721864-2.292979l0.65817-2.123129-36.284275-10.934115-0.573245 1.889585z m0.700633-2.29298l0.636938-2.123129-36.454125-10.615645-0.552014 1.889585z m0.679401-2.292979l0.615707-2.123129-36.539051-10.297176-0.552013 1.889585z m0.65817-2.314211l0.615707-2.123129-36.517819-10.0424-0.530783 1.889585z m0.636939-2.31421l0.594476-2.12313-36.708901-9.681468-0.509551 1.910816z m0.615707-2.314211l0.573245-2.123129-36.793826-9.384231-0.48832 1.910817z m0.594476-2.314211l0.552014-2.123129-36.878752-9.065761-0.488319 1.910816z m0.573245-2.335442l0.530782-2.123129-36.730132-8.832217-0.467089 1.910817z m0.552014-2.335442l0.50955-2.123129-37.02737-8.492516-0.445857 1.910816z m0.552013-2.335442l0.48832-2.123129-37.091065-8.131584-0.424625 1.932048z m0.530782-2.335442l0.48832-2.123129-37.154758-7.834346-0.424626 1.932048z m0.509551-2.335442l0.467089-2.123129-37.218452-7.515876-0.403395 1.932047z m0.48832-2.356673l0.445857-2.229285-37.154758-7.154945-0.382163 1.932047z m0.467088-2.356673l0.424626-2.229286-37.260915-6.9214-0.360931 1.932047z m0.445857-2.356673l0.403395-2.229286-37.388302-6.5817-0.339701 1.932048z m0.424626-2.356673l0.382164-2.250517-37.451997-6.369387-0.3397 1.953278z m0.403395-2.356674l0.360932-2.250517-37.494459-5.944761-0.31847 1.953279z m0.382163-2.356673l0.339701-2.250517-37.558153-5.647523-0.297238 1.953279z m0.360932-2.377904l0.318469-2.250517-37.388302-5.329054-0.276007 1.953279z m0.339701-2.377905l0.318469-2.250517-37.643078-5.010584-0.276007 1.953278z m0.318469-2.377905l0.297238-2.250516-37.68554-4.692116-0.254776 1.953279z m0.297238-2.377904l0.276007-2.250517-37.706772-4.394877-0.233544 1.953279z m0.276007-2.377905l0.254775-2.250516-37.749234-4.076408q0 0.976639-0.212313 1.953279z m0.276007-2.377904l0.233544-2.250517-37.791697-3.757938q0 0.976639-0.212313 1.953278z m0.254775-2.377905l0.212313-2.271748-37.812928-3.439469q0 0.976639-0.191082 1.97451z m0.233544-2.377904q0-1.125258 0.191082-2.271748l-37.83416-3.142231q0 0.976639-0.16985 1.97451z m0.212313-2.399136q0-1.125258 0.16985-2.271748l-37.85539-2.823762q0 0.976639-0.148619 1.97451z m0.191082-2.377905q0-1.125258 0.148619-2.271748l-37.791697-2.526523q0 0.976639-0.148619 1.97451z m0.16985-2.399135q0-1.125258 0.148619-2.271748l-37.897853-2.123129q0 0.976639-0.127388 1.97451z m0.148619-2.399136q0-1.125258 0.127388-2.271748l-37.791697-1.868354v1.97451z m0.127388-2.399136v-2.271748l-37.791697-1.571116v1.97451z m0.106156-2.399136v-2.271748l-37.770465-1.252646v1.97451z m0-2.399136v-2.271748l-37.706771-0.934177v1.974511z m0-2.399135v-2.271749l-37.961547-0.636938v1.97451z m0-2.399136v-2.271748l-37.643078-0.297238v1.97451z m0-2.399136v-2.271748h-37.643078v1.97451z m0-2.399136v-2.271748l-37.961547 0.297238v1.97451z m-37.982778-2.123129l38.301248-0.233544v-2.271748l-37.961548 0.594476v1.97451z m0-2.123129l38.301248-0.509551v-2.271748l-37.961548 0.912945q-0.042463 0.976639-0.021231 1.97451z m0-2.123129l38.301248-0.785558v-2.271748l-37.940316 1.210184q-0.106156 0.997871-0.084925 1.995741z m0-2.123129l38.152629-1.040333v-2.271748l-38.067704 1.528652q0 0.976639 0.127388 1.974511z m0-2.123129l37.940316-1.549884v-2.271748l-37.855391 2.059435v1.97451z m0-2.123129l37.919084-1.847122q0-1.125258-0.127387-2.271749l-37.897854 2.12313q0.191082 1.273877 0.191082 2.250516z m-0.106157-2.123129l37.897854-2.123129q0-1.125258-0.148619-2.271748l-37.897854 2.462829 0.191082 2.229286z m-0.127387-2.123129l37.897853-2.484061q0-1.125258-0.148619-2.271748l-37.855391 3.120999 0.148619 1.97451z m-0.148619-2.123129l37.876622-2.781299q0-1.125258-0.169851-2.271748l-37.834159 3.078537 0.16985 2.356673z m-0.169851-2.123129l37.83416-3.099769q0-1.125258-0.191082-2.271748l-37.812928 3.397007q0.148619 1.422496 0.212313 2.420367z m-0.16985-2.123129l37.812928-3.418238q0-1.125258-0.212313-2.271748l-37.791697 3.715476 0.233544 2.462829z m-0.191082-2.123129l37.83416-3.163463-0.233544-2.250517-37.749235 4.012714 0.191082 1.932048z m-0.212313-2.12313l37.749235-4.033945-0.254776-2.250516-37.728003 4.246258 0.276007 2.63268z m-0.233544-2.123129l37.728003-4.246258q-0.191082-0.594476-0.191081-1.719734l-37.685541 4.649652 0.191082 1.953279z m-0.254775-2.123129l37.791697-3.970251-0.297238-2.250517-37.643078 4.946891 0.191081 1.97451z m-0.254776-2.123129l37.685541-4.225026-0.297238-2.250517-37.558153 5.26536z m-0.276007-2.123129l37.600616-5.286591-0.31847-2.250517-37.536921 6.496775z m-0.297238-2.123129l37.558153-5.60506-0.339701-2.250517-37.494458 6.815244z m-0.318469-2.123129l37.51569-5.902299-0.360932-2.250516-37.430765 7.112482z m-0.339701-2.123129l37.494459-5.286591-0.3397-2.123129-37.451997 6.369387z m-0.3397-2.123129l37.494459-5.456442-0.403395-2.229285-37.34584 6.836476z m-0.360932-2.123129l37.34584-6.836475-0.424626-2.229286-37.282146 8.280203z m-0.382163-2.123129l37.324608-5.92353-0.445857-2.229285-37.239683 7.452182z m-0.403395-2.123129l37.218452-7.473414-0.445857-2.123129-37.133527 8.980836z m-0.424626-2.123129l37.154758-7.770652-0.467088-2.123129-37.091064 8.06789z m-0.424626-2.123129l37.091065-8.089122-0.48832-2.123129-37.02737 8.38636z m-0.445857-2.123129l37.027371-8.492516-0.509551-2.123129-36.921214 10.275944z m-0.467088-2.123129l36.963677-8.704829-0.530783-2.123129-36.878751 9.002067z m-0.48832-2.123129l36.878752-9.023299-0.552014-2.123129-36.815057 9.299306z m-0.509551-2.123129l36.836289-7.409721-0.573245-2.123129-36.730132 9.617775z m-0.509551-2.016973l36.730133-9.639006-0.594476-2.123129-36.68767 11.719673z m-0.552013-0.148619l36.645207-9.936244-0.594476-2.123129-36.560282 10.233482z m-0.552014-1.995741l36.645207-10.233482-0.615707-2.123129-36.475357 10.615645z m-0.573245-1.995741l36.475357-10.615646-0.636938-2.123129-36.369201 10.84919z m-0.594476-1.995742l36.390432-10.849189-0.65817-2.123129-36.305507 11.146427z m-0.594476-1.995741l36.284275-11.167659-0.679401-2.123129-36.19935 11.443666z m-0.615707-1.995741l36.093193-11.464897-0.700632-2.123129-36.093194 11.740903z m-0.636939-1.97451l36.093194-11.762135-0.721864-2.123129-36.050731 12.101835z m-0.679401-1.97451l36.093193-12.059373-0.721863-2.123129-35.944575 12.250454z m-0.615708-1.932048l35.902112-12.356611-0.743095-2.123129-35.795956 12.738774z m-0.679401-1.97451l35.795956-12.738774-0.764327-2.123129-35.689799 12.951087z m-0.700633-1.953279l35.6898-13.057243-0.785558-2.123129-35.583643 13.248325z m-0.721864-1.953278l35.583643-13.227094-0.806789-2.123129-35.477486 13.545563zM726.124995 420.394413l35.456255-13.566795-0.82802-2.123129-35.413792 13.842801z m-0.785557-1.953279l35.350098-13.864033-0.82802-2.123129-35.243942 14.14004z m-0.764327-1.932047l35.243942-14.161271-0.849251-2.123129-35.116555 14.437277z m-0.785558-1.932048l35.116555-14.437277-0.870483-2.123129-34.967936 14.734515z m-0.806789-1.910816l34.989167-14.734516-0.891714-2.123129-34.819317 15.031754z m-0.806789-1.910816l34.861779-15.031754-0.912945-2.123129-34.691929 15.328992z m-0.82802-1.910816l34.776854-15.328992-0.934177-2.123129-34.607004 15.62623z m-0.849252-1.910816l34.564541-15.604999-0.934177-2.123129-34.479615 15.881005z m-0.870483-1.889585l34.479616-15.902237-0.955408-2.123129-34.352228 16.178243z m-0.870482-1.889585l34.352227-16.178243-0.976639-2.12313-34.22484 16.454251z m-0.870483-1.868354l34.203609-16.475481-0.997871-2.123129-34.076221 16.730257z m-0.912946-1.868353l33.970065-16.751488-1.019102-2.123129-33.970065 16.985032z m-0.934177-1.868354l33.970065-16.985032-1.019102-2.123129-33.800214 17.303501z m-0.934176-1.847122l33.800214-17.345964-1.040333-2.123129-33.651596 17.579508z m-0.955409-1.847122l33.651596-17.621971-1.061565-2.016973-33.502976 17.94044z m-0.976639-1.847123l33.502976-17.897977-1.082795-1.995742-33.354358 18.131522z m-0.997871-1.825891l33.354358-18.152753-1.082796-2.016973-33.205738 18.407529z m-0.976639-1.847122l33.248201-18.42876-1.104027-1.97451-33.057119 18.683536z m-1.019102-1.825891l33.035888-18.704767-1.125258-1.97451-32.887269 18.980774z m-1.040333-1.80466l32.887269-18.980773-1.14649-1.953279-32.73865 19.235549z m-1.040333-1.804659l32.73865-19.256781-1.167721-1.953278-32.590031 19.532787z m-1.061565-1.783429l32.5688-19.511556-1.167721-1.953278-32.441412 19.766331z m-1.082796-1.698503l32.39895-19.787563-1.188953-1.932047-32.25033 20.042338z m-1.082795-1.783428l32.25033-20.06357-1.167721-1.995741-32.08048 20.297114z m-1.125259-1.825891l32.08048-20.318345-1.231415-1.910816-31.846935 20.57312z m-1.125258-1.762197l31.846935-20.573121-1.231414-1.910816-31.846936 20.827896z m-1.14649-1.740966l31.740779-20.849127-1.252646-1.889585-31.570929 21.082671z m-1.14649-1.740966l31.570929-21.103903-1.273877-1.889585-31.379847 21.358679z m-1.146489-1.762197l31.379847-21.231291-1.295109-1.868353-31.209997 21.507297z m-1.188953-1.677272l31.209997-21.677148-1.295108-1.868353-31.040147 21.910692z m-1.188952-1.719735l31.040147-21.868229-1.31634-1.847122-30.912759 22.101773z m-1.188952-1.698503l30.827834-22.123004-1.337572-1.847123-30.679214 22.37778z m-1.231415-1.698503l30.657983-22.37778-1.337571-1.825891-30.509364 22.632555z m-1.252646-1.698503l30.488133-22.611325-1.358803-1.804659-30.297051 22.8661z m-1.252646-1.63481l30.297051-22.887331-1.358802-1.804659-30.127201 23.120875z m-1.252646-1.65604l30.10597-23.142107-1.380034-1.80466-29.93612 23.35442z m-1.380034-1.656041l29.914888-23.354419-1.295109-1.80466-29.745038 23.609195z m-1.188952-1.634809l29.723806-23.609195-1.422496-1.783429-29.532725 23.863971z m-1.295109-1.613578l29.532725-23.863971-1.443728-1.762197-29.341643 24.076283z m-1.31634-1.613578l29.277949-24.161209-1.401265-1.698503-29.150562 24.331059z m-1.337571-1.613579l29.12933-24.35229-1.464959-1.740965-28.895786 24.585834z m-1.337572-1.592346l28.938249-24.585835-1.48619-1.719734-28.747168 24.798147z m-1.358802-1.592347l28.725936-24.819379-1.486191-1.698503-28.534854 25.031692z m-1.380034-1.571116l28.534854-25.052922-1.507422-1.698504-28.428697 25.286467z m-1.401265-1.549884l28.343772-25.286467-1.507421-1.698503-28.13146 25.604936z m-1.401266-1.549884l28.152692-25.520011-1.528653-1.677272-27.919147 25.732324z m-1.401265-1.528653l27.940378-25.753555-1.549884-1.677272-27.706834 25.965868z m-1.443728-1.549884l27.749297-25.965868-1.571115-1.656041-27.494522 26.199412z m-1.422496-1.507422l27.515752-26.199412-1.571115-1.634809-27.282208 26.411725z m-1.443728-1.507421l27.30344-26.411726-1.571116-1.634809-27.112358 26.645269z m-1.380034-1.486191l27.006202-26.645269-1.528653-1.698503-26.900045 26.942507z m-1.464959-1.48619l26.793889-26.857582-1.613578-1.592347-26.624038 27.069895z m-1.528653-1.380034l26.624039-27.15482-1.63481-1.592347-26.390494 27.282208z m-1.48619-1.549884l26.390494-27.282208-1.634809-1.571116-26.178181 27.494521z m-1.507422-1.443728l26.178182-27.494521-1.656041-1.549884-25.965868 27.791759z m-1.507421-1.422496l25.944637-27.706834-1.677272-1.549885-25.732324 27.919147z m-1.528653-1.422497l25.711093-27.919147-1.677272-1.528653-25.49878 28.110229zM347.167692 621.348577l-1.337571-1.910816 31.082609-21.783304 1.104027 1.571115z m-1.422496-1.995742l-1.31634-1.910816 31.337384-21.443603 1.082796 1.571115z m-1.401265-2.123129l-1.295109-1.847122 31.59216-21.018977 1.061565 1.592346z m-1.380034-2.123129l-1.273878-1.953278 31.846936-20.679277 1.040333 1.592347z m-1.358803-2.123129l-1.252646-1.634809 32.08048-20.318345 1.040333 1.613578z m-1.337571-2.123129l-1.210184-1.634809 32.314024-19.914951 1.019102 1.613579z m-1.295109-2.123129l-1.210184-1.634809 32.547569-19.532787 0.99787 1.634809z m-1.273877-2.123129l-1.188953-1.634809 32.781113-19.108162 0.976639 1.63481z m-1.252647-2.123129l-1.16772-1.634809 33.014656-18.74723 0.955408 1.656041z m-1.231414-2.123129l-1.14649-1.634809 33.248201-18.343835 0.934177 1.65604z m-1.210184-2.123129l-1.125258-2.123129 33.460513-17.94044 0.912946 1.677272z m-1.188952-2.123129l-1.104027-2.123129 33.651595-17.239808 0.891714 1.677272z m-1.14649-2.123129l-1.061564-2.123129 33.970064-17.091189 0.870483 1.698503z m-1.125258-2.123129l-1.040333-2.123129 34.118683-16.496713 0.849252 1.698503z m-1.104027-2.123129l-1.019102-2.123129 34.309765-16.241937 0.82802 1.719734z m-1.082796-2.229286l-0.997871-2.123129 34.522078-15.817311 0.806789 1.719734z m-1.040333-2.250516l-0.955408-2.123129 34.755622-15.413917 0.785558 1.719734z m-1.019102-2.271749l-0.934177-2.123129 34.904241-14.861903 0.764327 1.740966z m-0.997871-2.271748l-0.912945-2.123129 35.095323-14.47974 0.721863 1.740966z m-0.955408-2.292979l-0.891714-2.123129 35.328867-14.097577 0.700633 1.762197z m-0.934177-2.292979l-0.849251-2.123129 35.456255-13.566795 0.679401 1.762197z m-0.891714-2.314211l-0.82802-2.123129 35.647336-13.312019 0.65817 1.762197z m-0.870483-2.335442l-0.806789-2.123129 35.795956-12.738774 0.636938 1.783428z m-0.849252-2.335442l-0.743095-2.271748 35.965806-12.144298 0.615708 1.783428z m-0.806789-2.356673l-0.743095-2.250517 36.093194-11.698441 0.594476 1.783428z m-0.785557-2.356673L318.484219 564.193943l36.263044-11.252584 0.573245 1.80466z m-0.743096-2.377905l-0.65817-2.292979 36.411664-10.721802 0.552013 1.80466z m-0.721863-2.377904l-0.65817-2.271748 36.581513-10.275945 0.509551 1.80466z m-0.679402-2.399136l-0.530782-2.314211 36.68767-9.745162 0.48832 1.825891z m-0.65817-2.399136l-0.594476-2.292979 36.815058-9.299306 0.467088 1.825891z m-0.615707-2.420367l-0.552014-2.29298 36.942446-8.768522 0.445857 1.82589z m-0.594476-2.420367l-0.509551-2.271748 37.048602-8.258972 0.424625 1.825891z m-0.552014-2.484061l-0.488319-2.314211 37.175989-7.770652 0.403395 1.847122z m-0.530782-2.441599l-0.467088-2.31421 37.282146-7.261102 0.360932 1.847123z m-0.467088-2.441598l-0.445858-2.335442 37.303378-6.730319 0.3397 1.847122z m-0.467089-2.46283l-0.403394-2.335442 37.451996-6.220768 0.318469 1.847122z m-0.424626-2.462829l-0.382163-2.335442 37.536922-5.732449 0.297238 1.847122z m-0.467088-2.46283q0-1.167721-0.276007-2.377905l37.621847-5.180435 0.276007 1.847123z m-0.276007-2.377905l-0.318469-2.356673 37.68554-4.77704 0.254776 1.868353z m-0.318469-2.484061l-0.276007-2.356673 37.728003-4.246258q0 0.934177 0.212313 1.868354z m-0.297238-2.484061l-0.254776-2.356673 37.791697-3.673013q0 0.934177 0.191082 1.868353z m-0.254776-2.484061l-0.212313-2.356673 37.83416-3.227156q0 0.934177 0.16985 1.868354z m-0.212313-2.484061q0-1.188952-0.16985-2.356673l37.855391-2.717605q0 0.934177 0.148619 1.868354z m-0.212313-2.590217q0-1.188952-0.148619-2.356673l37.812929-2.101898q0 0.934177 0.106156 1.868354z m-0.148619-2.505292q0-1.188952-0.106156-2.356674l37.919085-1.592346v1.868353z m-0.127387-2.505293v-2.356673l37.940316-1.061564v1.847122z m0-2.505292v-2.377904l37.834159-0.509551v1.868353z m0-2.505292v-2.377905h37.961547v1.868354z m0-2.505292v-2.377905l37.961547 0.48832v1.847122z m37.834159-1.953279l-37.961547-0.594476v-2.377905l38.067704 1.104027q0 0.934177-0.106157 1.868354z m0-1.97451l-37.919084-1.019102v-2.356673l38.025241 1.507421v1.868354z m0-1.97451l-37.834159-1.549884q0-1.188952 0.106156-2.377905l37.919085 2.123129q-0.084925 0.912945-0.084925 1.80466z m0-1.97451l-37.919084-2.123129q0-1.188952 0.148619-2.356673l38.088935 2.611448q-0.063694 0.82802-0.212313 1.868354z m0.31847-1.97451l-37.876623-2.590218q0-1.188952 0.169851-2.356673l37.834159 3.078537-0.127387 1.868354z m0.148619-1.97451l-37.83416-3.121q0-1.188952 0.212313-2.356673l37.791697 3.609319-0.16985 1.868354z m0.16985-1.97451l-37.791697-3.60932 0.233544-2.356673 37.749235 4.118871-0.191082 1.847122z m0.212313-1.97451l-37.749235-4.246258 0.276007-2.356674 37.685541 4.649653-0.212313 1.953279z m0.233544-1.97451l-37.68554-4.670884 0.297238-2.356673 37.621846 5.244128-0.233544 1.80466z m0.254776-1.953279l-37.621847-5.180435 0.339701-2.335442 37.536921 5.562598-0.254775 1.953279z m0.276006-1.953279l-37.600615-5.711217 0.360932-2.335442 37.451996 6.199537q-0.063694 0.912945-0.212313 1.847122z m0.31847-1.953278l-37.451997-6.220768 0.403395-2.335442 37.34584 6.709087-0.297238 1.847123z m0.297238-1.953279l-37.324609-6.709088 0.424626-2.335442 37.282146 7.218639-0.382163 1.825891z m0.360932-1.953279l-37.239684-7.23987 0.467089-2.31421 37.175989 7.728189z m0.382163-1.932047l-37.133527-7.749421 0.48832-2.314211 37.069833 8.237741z m0.424626-1.932048l-37.027371-8.258972 0.530782-2.31421 36.942446 8.72606z m0.445857-1.932047l-36.942446-8.747292 0.552014-2.292979 36.899983 9.21438z m0.509551-1.932048l-36.815058-9.256842 0.594476-2.29298 36.708901 9.723932z m0.488319-1.910816l-36.687669-9.766393 0.615707-2.335442 36.560282 10.21225z m0.530783-1.910816l-36.560282-10.191019 0.65817-2.271748 36.432894 10.615645z m0.552013-1.910816l-36.432894-10.743033 0.679401-2.271748 36.305507 11.103965z m0.552014-1.910816L318.484219 455.744511l0.721864-2.250517 36.093193 11.67721z m0.594476-1.889585l-36.093194-11.698441 0.743095-2.250517 35.965806 12.16553z m0.615707-1.889585l-35.923343-12.18676 0.743095-2.229286 35.817187 12.632618z m0.65817-1.889585l-35.838418-12.653849 0.806789-2.123129 35.647337 13.099706z m0.679402-1.868353l-35.604874-13.120938 0.82802-2.123129 35.456255 13.566795z m0.700632-1.868354l-35.456255-13.588026 0.849252-2.123129 35.286405 14.033883z m0.721864-1.847122l-35.243942-14.055114 0.891714-2.123129 35.095323 14.47974z m0.743095-1.847122l-35.05286-14.500972 0.912945-2.123129 34.904242 14.861904z m0.806789-1.762197l-34.904241-14.861904 0.934177-2.123129 34.819316 15.159142z m0.849252-1.910817l-34.755622-15.392685 0.976639-2.123129 34.522078 15.817311z m0.82802-1.825891l-34.564541-15.838542 0.997871-2.123129 34.309765 16.241937z m0.849252-1.804659l-34.373459-16.2844 1.019102-2.123129 34.118683 16.687794z m0.870483-1.80466l-34.161146-16.709025 1.040333-2.101898 33.970064 17.11242z m0.891714-1.783428l-33.948833-17.133652 1.061564-2.123129 33.694058 17.558277z m0.806789-1.80466l-33.630364-17.537046 1.104027-2.123129 33.460514 17.940441z m0.976639-1.80466l-33.439282-17.919209 1.125258-2.123129 33.248201 18.343835z m0.955409-1.762197l-33.22697-18.322603 1.14649-2.038204 33.014656 18.747229z m0.976639-1.762197l-32.993425-18.725998 1.16772-2.123129 32.781113 19.108161z m0.997871-1.740966l-32.759882-19.129392 1.252646-1.995742 32.547569 19.532788z m1.019101-1.740966l-32.526337-19.511555 1.231415-1.995742 32.314024 20.021107z m1.082796-1.65604l-32.314024-19.957413 1.231415-1.97451 32.101711 20.318345z m1.061565-1.698503l-32.059249-20.339577 1.252646-1.97451 31.846936 20.679277z m1.082796-1.698504l-31.825705-20.721739 1.273878-1.953279 31.613391 21.06144z m1.125258-1.698503l-31.59216-21.082671 1.31634-1.932048 31.337385 21.422372z m1.125258-1.677272l-31.337384-21.443603 1.31634-1.910816 31.10384 21.804535z m1.14649-1.65604l-31.082609-21.804536 1.337571-1.889585 30.93399 22.123005zM676.804708 621.348577l1.358802-1.910816-31.10384-21.783304-1.104027 1.571115z m1.422496-2.016973l1.337571-1.910816-31.358616-21.422372-1.082795 1.571115z m1.401265-2.123129l1.295109-1.825891-31.59216-21.018977-1.061565 1.592346z m1.380034-2.123129l1.273878-1.953279-31.846936-20.679277-1.040333 1.592347z m1.358803-2.123129l1.252646-1.613578-32.08048-20.40327-1.040333 1.613578z m1.337571-2.123129l1.210184-1.613578-32.314025-19.999876-1.019101 1.613578z m1.295109-2.123129l1.167721-1.613578-32.547569-19.532787-0.99787 1.634809z m1.273877-2.123129l1.188952-1.613578-32.781112-19.108162-0.976639 1.63481z m1.252646-2.123129l1.167721-2.123129-33.014656-18.301373-0.955408 1.656041z m1.231415-2.123129l1.14649-1.613578-33.248201-18.449992-0.934177 1.656041z m1.210184-2.123129l1.125258-2.123129-33.481745-17.579509-0.912945 1.677272z m1.188952-2.123129l1.104027-2.123129-33.694058-17.218577-0.891714 1.677272z m1.14649-2.123129l1.061564-2.123129-33.970065-17.091189-0.82802 1.889585z m1.125258-2.123129l1.040333-2.123129-34.118684-16.475482-0.849251 1.698503z m1.104027-2.123129l1.019102-2.123129-34.330997-16.241938-0.82802 1.719735z m1.082796-2.229286l0.997871-2.123129-34.54331-15.817311-0.806789 1.719734z m1.040333-2.250517l0.955408-2.123129-34.798085-15.392685-0.785558 1.719734z m1.019102-2.271748l0.934177-2.123129-34.904242-14.861903-0.764326 1.740966z m0.997871-2.271748l0.912945-2.123129-35.116554-14.522203-0.721864 1.740966z m0.955408-2.292979l0.891714-2.123129-35.307636-14.076346-0.700633 1.762197z m0.934177-2.29298l0.849251-2.123129-35.477486-13.651719-0.679401 1.762197z m0.891714-2.31421l0.82802-2.123129-35.647337-13.290788-0.65817 1.762197z m0.870483-2.335442l0.806789-2.123129-35.795956-12.738775-0.65817 1.783429z m0.849251-2.335442l0.743095-2.250517-35.965806-12.144298-0.615707 1.783428z m0.806789-2.356673l0.743096-2.250517-36.093194-11.698441-0.594476 1.783428z m0.785558-2.356674l0.721864-2.250516-36.305507-11.231353-0.573245 1.80466z m0.743095-2.377904l0.679402-2.271748-36.432895-10.721802-0.573245 1.80466z m0.721864-2.377905l0.65817-2.271748-36.581513-10.254713-0.509551 1.80466z m0.679401-2.399136l0.615708-2.271748-36.68767-9.787624-0.48832 1.82589z m0.65817-2.399135l0.594477-2.29298-36.857521-9.278074-0.467088 1.825891z m0.615708-2.420367l0.552013-2.29298-36.942445-8.747291-0.48832 1.783428z m0.594476-2.420368l0.530782-2.31421-37.069833-8.280203-0.424626 1.82589z m0.552014-2.441598l0.488319-2.314211-37.154758-7.770652-0.403395 1.783428z m0.530782-2.441598l0.467088-2.314211-37.282146-7.282333-0.360932 1.847123z m0.488319-2.441599l0.445858-2.335442-37.367072-6.75155-0.3397 1.847122z m0.467089-2.462829l0.403394-2.335442-37.473227-6.242-0.31847 1.847122z m0.424626-2.46283l0.382163-2.335442-37.558153-5.75368-0.297238 1.847122z m0.403394-2.484061l0.339701-2.335442-37.621847-5.222898-0.276007 1.868354z m0.339701-2.377905l0.318469-2.356673-37.68554-4.77704-0.254776 1.868353z m0.318469-2.484061l0.276007-2.356673-37.728003-4.246258q0 0.934177-0.212313 1.868354z m0.297238-2.484061l0.254776-2.356673-37.812929-3.757938q0 0.934177-0.191081 1.868353z m0.254776-2.484061l0.212313-2.356673-37.83416-3.248387q0 0.934177-0.16985 1.868353z m0.212313-2.484061q0-1.188952 0.16985-2.356673l-37.855391-2.717605q0 0.934177-0.148619 1.868354z m0.191081-2.484061q0-1.188952 0.148619-2.356673l-37.855391-2.208054q0 0.934177-0.106156 1.868354z m0.148619-2.505292q0-1.188952 0.106157-2.356673l-37.961548-1.698503v1.868353z m0.127388-2.505292v-2.356673l-37.876622-1.167721q-0.106156 0.934177-0.106157 1.847122z m0-2.505292v-2.377905l-37.83416-0.615707v1.868353z m0-2.505293v-2.377904h-37.961547v1.868353z m0-2.505292v-2.377904l-37.812928 0.424625v1.847123z m-37.812928-2.059435l38.046472-0.594476v-2.377905l-38.088935 1.104027 0.042463 1.868354z m0-1.97451l37.961547-1.019102v-2.356673l-38.131398 1.507421q0 0.934177 0.127388 1.868354z m0-1.97451l37.940316-1.549884q0-1.188952-0.106157-2.377905l-38.00401 2.059435v1.868354z m0-1.97451l37.919085-2.123129q0-1.188952-0.14862-2.356673l-38.088935 2.611448q0.148619 0.82802 0.148619 1.868354z m-0.339701-1.97451l37.876622-2.590218q0-1.188952-0.16985-2.356673l-37.83416 3.078537 0.127388 1.868354z m-0.148619-1.97451l37.83416-3.099769q0-1.188952-0.212313-2.356673l-37.791697 3.60932q0.106156 0.912945 0.16985 1.847122z m-0.16985-1.97451l37.791697-3.60932-0.233544-2.356673-37.749235 4.097639 0.191082 1.868354z m-0.212313-1.97451l37.749234-4.246258-0.276006-2.356674-37.685541 4.734578 0.233544 1.868354z m-0.212313-1.953279l37.685541-4.670884-0.297239-2.356673-37.643078 5.222897 0.254776 1.80466z m-0.254776-1.97451l37.621847-5.180435-0.339701-2.335442-37.558152 5.562598 0.276006 1.953279z m-0.297238-1.953279l37.558153-5.711217-0.360932-2.335442-37.494459 6.199537q0.16985 0.912945 0.297238 1.847122z m-0.297238-1.953278l37.451997-6.220768-0.403395-2.335442-37.409534 6.709087 0.360932 1.847123z m-0.360932-1.953279l37.388303-6.709088-0.424626-2.335442-37.282146 7.218639 0.318469 1.825891z m-0.3397-1.953279l37.282146-7.23987-0.467089-2.31421-37.19722 7.728189z m-0.403395-1.932047l37.17599-7.749421-0.48832-2.314211-37.069833 8.21651z m-0.424626-1.932048l37.069834-8.258972-0.530783-2.31421-36.942445 8.72606z m-0.424625-1.932047l36.942445-8.747292-0.552014-2.292979-36.921214 9.21438z m-0.530783-1.932048l36.815058-9.256842-0.594476-2.29298-36.645207 9.723932z m-0.445857-1.910816l36.68767-9.766393-0.615707-2.335442-36.560282 10.275944z m-0.530782-1.910816l36.560282-10.191019-0.636939-2.335442-36.432894 10.615645z m-0.530782-1.910816l36.411663-10.743033-0.679401-2.271748-36.34797 11.103965z m-0.615708-1.910816l36.305507-11.231353-0.721864-2.250517-36.093194 11.67721z m-0.573245-1.889585l36.093194-11.698441-0.700632-2.250517-35.987038 12.144298z m-0.615707-1.889585l35.965806-12.18676-0.806789-2.229286-35.774724 12.632618z m-0.65817-1.889585l35.795956-12.738774-0.806789-2.123129-35.626106 13.099706z m-0.679401-1.868353l35.626105-13.120938-0.82802-2.123129-35.456255 13.48187z m-0.700633-1.868354l35.456255-13.588026-0.849251-2.123129-35.286405 13.948958z m-0.721864-1.847122l35.265174-14.055114-0.891714-2.123129-35.095324 14.47974z m-0.743095-1.847122l35.095323-14.500972-0.912945-2.123129-34.925473 14.861904z m-0.785558-1.762197l34.904242-14.861904-0.934177-2.123129-34.71316 15.371455z m-0.891714-1.910817l34.819317-15.392685-0.97664-2.123129-34.522078 15.817311z m-0.82802-1.825891l34.500847-15.838542-0.997871-2.123129-34.309765 16.241937z m-0.849252-1.804659l34.415922-16.2844-1.019102-2.123129-34.118684 16.687794z m-0.870483-1.80466l34.203609-16.709025-1.040333-2.12313-33.970065 17.112421z m-0.891714-1.783428l33.970065-17.133652-1.061565-2.123129-33.715289 17.558277z m-0.806789-1.80466l33.672827-17.537046-1.104027-2.123129-33.460514 17.940441z m-0.934177-1.80466l33.460514-17.919209-1.125258-2.123129-33.248201 18.343835z m-0.955408-1.762197l33.22697-18.322603-1.14649-2.123129-33.014657 18.747229z m-0.976639-1.762197l32.993425-18.725998-1.167721-2.123129-32.781112 19.108161z m-0.997871-1.740966l32.781113-19.108161-1.31634-2.016973-32.547569 19.532788z m-1.019102-1.740966l32.483875-19.511555-1.188953-1.995742-32.314024 20.021107z m-1.061564-1.65604l32.292793-19.957413-1.231415-1.97451-32.08048 20.318345z m-1.061565-1.698503l32.059249-20.339577-1.273878-1.97451-31.846935 20.679277z m-1.104027-1.719735l31.846936-20.700508-1.295109-1.953279-31.613391 21.06144z m-1.104027-1.677272l31.570929-21.082671-1.295109-1.932048-31.358616 21.422372z m-1.14649-1.677272l31.337385-21.443603-1.31634-1.910816-31.10384 21.804535z m-1.146489-1.65604l31.082609-21.804536-1.337571-1.889585-30.849065 22.123005zM553.896767 454.491865a7.07002 7.07002 0 0 1-4.883197-3.609319l-31.209997-63.269246a6.475544 6.475544 0 0 0-11.677209 0l-31.209997 63.269246a6.666625 6.666625 0 0 1-4.883197 3.609319l-69.808483 10.148557a6.475544 6.475544 0 0 0-3.609319 11.040271l50.530471 49.256594a6.369387 6.369387 0 0 1 1.910816 5.732448l-11.931985 69.702327a6.369387 6.369387 0 0 0 9.341768 6.794013l62.419993-32.696188a6.369387 6.369387 0 0 1 6.157075 0l62.419994 32.696188a6.369387 6.369387 0 0 0 9.341767-6.794013l-11.889522-69.638633a7.048788 7.048788 0 0 1 1.910816-5.732448l50.530471-49.256594a6.475544 6.475544 0 0 0-3.609319-11.040271z" fill="#FFFFFF" p-id="57771"></path></svg>