<svg t="1719978888749" class="icon" viewBox="0 0 1024 1024" version="1.1" xmlns="http://www.w3.org/2000/svg" p-id="57922" width="200" height="200"><path d="M688.68478176 76.22676585s4.16338851-35.45950139-27.11701345-58.41312633-75.09810215 31.29611285-75.09810216 31.29611285L406.89407879 226.37583743c-76.30784144 75.33376565-148.01238919 146.11137027-148.01238919 146.11137029l246.18980349 118.91580233 183.61328867-415.1762442zM333.99550265 948.30740477s-4.16338851 35.45950139 27.11701345 58.41312631c31.29611285 22.95362495 75.11381303-31.29611285 75.11381305-31.29611287s50.00779479-49.3636479 110.95037602-109.536395c95.01952339-93.80978409 216.60617872-213.84106033 216.60617872-213.84106033l-246.18980347-118.93151324L333.99550265 948.30740477z m640.51768337-360.92650642l-108.27952302-109.67779312c-93.98260399-95.19234327-215.09793232-217.87876162-215.09793232-217.87876162l-118.91580234 246.18980347 415.17624421 183.59757777s35.45950139 4.16338851 58.41312633-27.11701346c22.93791404-31.29611285-31.29611285-75.11381303-31.29611286-75.11381304zM490.47606698 518.5357344L75.29982274 334.93815666s-35.45950139-4.16338851-58.41312631 27.11701344c-22.95362495 31.29611285 31.29611285 75.11381303 31.29611286 75.11381307a39957130.43605414 39957130.43605414 0 0 0 323.37745534 327.54084383l118.91580235-246.1740926z m0 0" p-id="57923"></path></svg>
