<svg t="1719981371828" class="icon" viewBox="0 0 1025 1024" version="1.1" xmlns="http://www.w3.org/2000/svg" p-id="59568" width="200" height="200"><path d="M682.207 93.5s4-34.038-26.034-56.067c-30.031-22.027-72.083 30.034-72.083 30.034s-89.024 87.892-172.326 170.13L269.713 377.839l236.282 114.14L682.207 93.5z m-340.41 837s-4 34.039 26.032 56.066c30.039 22.03 72.09-30.034 72.09-30.034s47.994-47.385 106.48-105.124l207.89-205.248-236.282-114.139-176.21 398.48z m614.738-346.41s-46.732-47.337-103.93-105.271l-206.44-209.106-114.14 236.282L930.5 682.206s34.039 4 56.068-26.034c22.027-30.034-30.034-72.083-30.034-72.083zM491.98 518.006L93.502 341.794s-34.039-3.998-56.068 26.036c-22.027 30.036 30.034 72.088 30.034 72.088l147.447 149.346 162.924 165.025 114.14-236.282z" p-id="59569" ></path></svg>