<svg t="1719902715088" class="icon" viewBox="0 0 1024 1024" version="1.1" xmlns="http://www.w3.org/2000/svg" p-id="32768" width="200" height="200"><path d="M512 109.714286c222.171429 0 402.285714 180.114286 402.285714 402.285714s-180.114286 402.285714-402.285714 402.285714S109.714286 734.171429 109.714286 512 289.828571 109.714286 512 109.714286z m0 74.715428a327.570286 327.570286 0 1 0 0 655.140572 327.570286 327.570286 0 0 0 0-655.140572z m0 340.114286l23.771429 0.292571c106.569143 2.267429 206.299429 19.858286 206.299428 44.909715 0 111.616-63.890286 229.376-230.070857 229.376-166.180571 0-229.595429-116.882286-229.595429-229.376 0-28.16 114.614857-45.202286 229.595429-45.202286z m0 68.973714c-54.198857 0-107.410286 4.022857-145.627429 10.971429l-12.178285 2.413714 0.219428 1.206857c12.141714 72.411429 60.745143 118.272 146.651429 121.856l10.934857 0.219429c88.868571 0 140.982857-43.446857 156.342857-113.408l1.755429-9.398857-12.434286-2.486857c-38.765714-7.131429-92.196571-11.337143-145.664-11.337143zM336.201143 333.641143l4.571428 2.194286 87.515429 49.627428c23.990857 13.604571 25.088 46.957714 3.84 62.537143l-4.900571 3.035429-87.515429 45.933714a37.339429 37.339429 0 0 1-39.058286-63.488l4.315429-2.633143 26.953143-14.153143-28.013715-15.872c-16.457143-9.325714-23.113143-29.257143-16.237714-46.336l2.194286-4.571428c9.325714-16.457143 29.257143-23.113143 46.336-16.274286z m348.452571 0a37.376 37.376 0 0 1 46.372572 16.274286l2.194285 4.571428a37.376 37.376 0 0 1-16.274285 46.336l-27.977143 15.872 26.916571 14.153143 4.315429 2.633143a37.376 37.376 0 0 1-39.058286 63.488l-87.515428-45.933714-4.900572-3.072a37.376 37.376 0 0 1 3.84-62.537143l87.515429-49.590857z" fill="#767676" p-id="32769"></path></svg>