<svg t="1718537967090" class="icon" viewBox="0 0 1024 1024" version="1.1" xmlns="http://www.w3.org/2000/svg" p-id="987" width="200" height="200"><path d="M0 0h1024v1024H0z" fill-opacity="0" p-id="988"></path><path d="M688.298667 107.52C614.4 107.52 556.544 145.066667 512 206.506667c-45.226667-61.44-102.4-98.986667-176.469333-98.986667-132.778667 0-240.981333 119.466667-240.981334 266.410667 0 87.893333 38.912 149.333333 69.802667 198.656 89.770667 144.042667 307.2 298.666667 316.074667 306.176a48.64 48.64 0 0 0 31.061333 10.581333 51.2 51.2 0 0 0 30.890667-10.581333C551.765333 871.253333 768 716.8 858.965333 572.586667c30.890667-49.152 69.802667-110.762667 69.802667-198.656-0.170667-146.602667-108.202667-266.410667-240.469333-266.410667z m-59.050667 411.648c-30.549333 49.493333-103.936 102.4-107.178667 105.813333a17.066667 17.066667 0 0 1-10.410666 3.754667 17.066667 17.066667 0 0 1-10.581334-3.754667c-3.072-2.56-76.458667-56.149333-106.837333-105.813333a125.44 125.44 0 0 1-23.722667-68.266667c0-51.2 36.693333-92.16 81.578667-92.16A72.362667 72.362667 0 0 1 512 392.533333a72.021333 72.021333 0 0 1 59.733333-34.133333c44.714667 0 81.237333 41.472 81.237334 92.16a124.416 124.416 0 0 1-23.722667 68.608z" fill="#DD1C00" p-id="989"></path><path d="M176.981333 307.2a17.92 17.92 0 0 1-9.557333-23.552l5.461333-12.288a18.090667 18.090667 0 0 1 33.109334 14.165333l-5.290667 12.288a17.066667 17.066667 0 0 1-23.381333 9.557334z m34.133334-64a17.92 17.92 0 0 1-2.730667-25.258667 176.469333 176.469333 0 0 1 147.797333-62.293333 18.090667 18.090667 0 1 1-3.754666 35.84 138.069333 138.069333 0 0 0-41.813334 3.754667 129.706667 129.706667 0 0 0-74.24 45.226666 18.090667 18.090667 0 0 1-25.258666 2.730667z" fill="#FFFFFF" p-id="990"></path></svg>