<svg t="1719908807191" class="icon" viewBox="0 0 1024 1024" version="1.1" xmlns="http://www.w3.org/2000/svg" p-id="52366" width="200" height="200"><path d="M512 512m-512 0a512 512 0 1 0 1024 0 512 512 0 1 0-1024 0Z" fill="#E83E6C" p-id="52367"></path><path d="M187.733333 75.946667a442.026667 442.026667 0 0 0-170.666666 279.04 256 256 0 0 0 302.08-205.653334A256 256 0 0 0 312.32 23.04 356.693333 356.693333 0 0 0 187.733333 75.946667z" fill="#FFFFFF" opacity=".5" p-id="52368"></path><path d="M475.306667 807.253333A262.826667 262.826667 0 0 1 247.466667 522.24a197.973333 197.973333 0 0 1 100.693333-170.666667c8.533333 61.44 17.066667 101.546667 48.64 116.053334a721.92 721.92 0 0 1-5.973333-142.506667 176.64 176.64 0 0 1 90.453333-138.24 104.106667 104.106667 0 0 1 71.68-8.533333c-12.8 15.36-16.213333 26.453333-26.453333 76.8a192 192 0 0 0 38.4 170.666666 209.066667 209.066667 0 0 1 20.48-96.426666c35.84-64.853333 48.64-61.44 64.853333-64l5.12 6.826666v5.12a354.133333 354.133333 0 0 0 68.266667 209.066667 163.84 163.84 0 0 0 12.8 25.6c0 23.893333 5.973333 35.84 7.68 50.346667a246.613333 246.613333 0 0 1-243.2 247.466666zM568.32 597.333333c-5.12 49.493333-22.186667 93.013333-29.866667 51.2a319.146667 319.146667 0 0 0-35.84-104.96 136.533333 136.533333 0 0 1-29.866666-23.893333 215.04 215.04 0 0 1-25.6 85.333333c-20.48 39.253333-67.413333 56.32-64.853334 85.333334a113.493333 113.493333 0 0 0 113.493334 116.053333 110.933333 110.933333 0 0 0 114.346666-109.226667A135.68 135.68 0 0 0 568.32 597.333333z" fill="#FFFFFF" p-id="52369"></path><path d="M743.253333 561.493333c0-14.506667-4.266667-26.453333-7.68-50.346666a256 256 0 0 1-9.386666-27.306667c0-5.12 0-9.386667-5.973334-13.653333a290.986667 290.986667 0 0 0-71.68 286.72 221.866667 221.866667 0 0 0 94.72-195.413334z" fill="#E83E6C" opacity=".5" p-id="52370"></path></svg>