<svg t="1720002859394" class="icon" viewBox="0 0 1024 1024" version="1.1" xmlns="http://www.w3.org/2000/svg" p-id="70498" width="200" height="200"><path d="M779.338 206.367h-72.559v-32.514c0-13.284-10.871-24.157-24.157-24.157s-24.157 10.871-24.157 24.157v32.514h-265.74v-32.514c0-13.284-10.871-24.157-24.157-24.157s-24.157 10.871-24.157 24.157v32.514h-96.716c-39.763 0-72.389 32.411-72.389 72.389V810.4c0 39.763 32.411 72.389 72.389 72.389h531.644c39.763 0 72.389-32.411 72.389-72.389V278.756c0-39.763-32.411-72.389-72.389-72.389zM803.41 810.4c0 13.2-10.898 24.071-24.071 24.071H247.695c-13.2 0-24.071-10.898-24.071-24.071V278.756c0-13.2 10.898-24.071 24.071-24.071h96.716v6.837c0 13.284 10.871 24.157 24.157 24.157s24.157-10.871 24.157-24.157v-6.837h265.736v6.837c0 13.284 10.871 24.157 24.157 24.157s24.157-10.871 24.157-24.157v-6.837h72.563c13.2 0 24.071 10.898 24.071 24.071V810.4z" p-id="70499" fill="#ffffff"></path><path d="M706.78 375.472H320.255c-13.284 0-24.157 10.871-24.157 24.157s10.871 24.157 24.157 24.157h386.528c13.284 0 24.157-10.871 24.157-24.157-0.005-13.284-10.875-24.157-24.16-24.157z m0 144.949H320.255c-13.284 0-24.157 10.871-24.157 24.157s10.871 24.157 24.157 24.157h386.528c13.284 0 24.157-10.871 24.157-24.157-0.005-13.289-10.875-24.157-24.16-24.157zM513.516 665.365H320.253c-13.284 0-24.157 10.871-24.157 24.157s10.871 24.157 24.157 24.157h193.263c13.284 0 24.157-10.871 24.157-24.157s-10.871-24.157-24.157-24.157z" p-id="70500" fill="#ffffff"></path></svg>