<svg t="1720013639009" class="icon" viewBox="0 0 1097 1024" version="1.1" xmlns="http://www.w3.org/2000/svg" p-id="76240" width="200" height="200"><path d="M346.453 713.582V282.575c0-19.456 18.7-33.962 37.328-22.503 14.848 9.167 300.275 199.923 325.583 215.625 16.7 10.386 16.433 35.084 0 45.446-18.286 11.654-304.81 202.07-326.412 214.942-15.75 9.387-36.499-1.048-36.499-22.503z m742.888-422.888A1366.211 1366.211 0 0 0 1036.8 457.68c-12.678 51.98-41.058 65.195-83.822 42.545 0 0-114.541-63.464-160.426-83.992-53.541-23.991-45.617-49.03 23.698-75.118 20.48-7.704 40.131-17.36 60.416-25.551C806.595 176.786 666.33 80.945 502.418 80.945c-233.764 0-423.302 193-423.302 431.055 0 238.08 189.538 431.055 423.302 431.055 123.612 0 233.814-54.808 311.174-140.775 0 0 21.212-15.946 34.207-15.946 19.505 0 34.938 14.507 37.644 33.232 0 0 0.585 18.968-6.046 26.819a37.864 37.864 0 0 1-6.608 7.655C781.117 957.586 650.12 1024 502.42 1024 224.913 1024 0 794.77 0 512c0-57.295 11.337-111.421 28.38-162.865 0.633-4.486 1.78-8.655 3.754-12.556C102.717 140.605 285.696 0 502.467 0c196.9 0 365.349 116.419 447.488 284.55 23.503-10.24 47.69-19.017 70.949-29.988 67.12-31.55 89.892-19.505 68.437 36.132h-0.024z" p-id="76241" fill="#ffffff"></path></svg>