<svg t="1720171589794" class="icon" viewBox="0 0 1024 1024" version="1.1" xmlns="http://www.w3.org/2000/svg" p-id="31744" width="200" height="200"><path d="M147.797333 147.797333C85.333333 210.346667 85.333333 310.869333 85.333333 512c0 201.130667 0 301.696 62.464 364.16C210.346667 938.666667 310.869333 938.666667 512 938.666667c201.130667 0 301.696 0 364.16-62.506667C938.666667 813.738667 938.666667 713.130667 938.666667 512s0-301.696-62.506667-364.202667C813.738667 85.333333 713.130667 85.333333 512 85.333333S210.304 85.333333 147.797333 147.797333zM640 512c-23.552 0-42.666667-28.672-42.666667-64S616.448 384 640 384s42.666667 28.672 42.666667 64-19.114667 64-42.666667 64z m-213.333333-64c0 35.328-19.114667 64-42.666667 64s-42.666667-28.672-42.666667-64S360.448 384 384 384s42.666667 28.672 42.666667 64z m-68.394667 215.594667a32 32 0 0 1 44.8-6.613334c31.061333 23.04 68.565333 36.352 108.928 36.352s77.866667-13.354667 108.928-36.352a32 32 0 1 1 38.144 51.370667A246.016 246.016 0 0 1 512 757.333333a246.016 246.016 0 0 1-147.072-48.981333 32 32 0 0 1-6.656-44.757333z" p-id="31745"></path></svg>