<svg t="1719902783957" class="icon" viewBox="0 0 1024 1024" version="1.1" xmlns="http://www.w3.org/2000/svg" p-id="34878" width="200" height="200"><path d="M856.3 128H167.7c-21.9 0-39.7 17.8-39.7 39.7v688.7c0 21.9 17.8 39.7 39.7 39.7h688.7c21.9 0 39.7-17.8 39.7-39.7V167.7c-0.1-21.9-17.9-39.7-39.8-39.7z m-10.9 717.4H178.6V178.6h666.8v666.8z" fill="#8a8a8a" p-id="34879"></path><path d="M385.1 661.7c6.1 3.5 13 5.3 19.8 5.3 6.9 0 13.7-1.8 19.8-5.3l199.7-115.3c12.2-7.1 19.8-20.2 19.8-34.3 0-14.1-7.6-27.3-19.8-34.3L424.8 362.3c-12.2-7.1-27.4-7.1-39.7 0-12.2 7.1-19.8 20.2-19.8 34.3v230.6c0 14.2 7.6 27.4 19.8 34.5z m30.8-246L582.8 512l-166.9 96.3V415.7z" fill="#8a8a8a" p-id="34880"></path></svg>