<svg t="1719891451144" class="icon" viewBox="0 0 1024 1024" version="1.1" xmlns="http://www.w3.org/2000/svg" p-id="8391" data-spm-anchor-id="a313x.search_index.0.i16.4cc23a81TA6AOU" width="200" height="200"><path d="M440 966.4C197.4 966.4 0 762.6 0 512S197.4 57.6 440 57.6c225.9 0 414 174.7 437.6 406.4l0.1 2.3v54.9c0 12.6-10.2 22.9-22.9 22.9s-22.8-10.3-22.8-23v-53.7c-21.7-207.7-190-364.1-392-364.1-217.4 0-394.3 183.3-394.3 408.7S222.6 920.7 440 920.7c51.7 0 102-10.2 149.4-30.4 11.7-4.9 25.1 0.5 30 12.1 4.9 11.6-0.5 25.1-12.1 30-53.1 22.6-109.4 34-167.3 34z" p-id="8392" data-spm-anchor-id="a313x.search_index.0.i18.4cc23a81TA6AOU" class="selected" fill="#ffffff"></path><path d="M440 794.9c-14.6 0-28.3-5.8-38.5-16.4L181.3 550.7c-20.6-21.3-20.6-56 0-77.4l220.2-227.9c10.2-10.6 23.9-16.4 38.5-16.4 14.6 0 28.3 5.8 38.5 16.4l220.2 227.9c20.6 21.3 20.6 56 0 77.4L478.5 778.5c-10.2 10.6-23.9 16.4-38.5 16.4z m0-520.1c-1.5 0-3.6 0.4-5.6 2.4L214.2 505.1c-3.6 3.7-3.6 10.1 0 13.8l220.2 227.9c1.9 2 4.1 2.4 5.6 2.4s3.6-0.4 5.6-2.4l220.2-227.9c3.6-3.7 3.5-10.1 0-13.8L445.6 277.2c-1.9-2-4.1-2.4-5.6-2.4zM815.7 812.3c-6.1 0-11.8-2.4-16-6.8l-78.1-80.8c-8.6-8.8-8.6-23.2 0-32.1l78.1-80.8c8.5-8.8 23.6-8.8 32.1 0l78.1 80.8c8.6 8.8 8.6 23.2 0 32.1l-78.1 80.8c-4.3 4.4-10 6.8-16.1 6.8z m0.4-22.7z m-0.8-162L738 708.5l77.9 80.8 77.6-80.6-78.2-81.1z" p-id="8393" data-spm-anchor-id="a313x.search_index.0.i17.4cc23a81TA6AOU" class="selected" fill="#ffffff"></path><path d="M815.7 923.3c-114.8 0-208.3-96.3-208.3-214.7s93.4-214.7 208.3-214.7c114.8 0 208.3 96.3 208.3 214.7s-93.4 214.7-208.3 214.7z m0-383.6c-89.6 0-162.5 75.8-162.5 168.9s72.9 168.9 162.5 168.9 162.5-75.8 162.5-168.9-72.9-168.9-162.5-168.9z" p-id="8394" data-spm-anchor-id="a313x.search_index.0.i20.4cc23a81TA6AOU" class="selected" fill="#ffffff"></path></svg>